<?xml version="1.0" encoding="UTF-8" standalone="no"?>
<!-- Created with Inkscape (http://www.inkscape.org/) -->

<svg
   version="1.1"
   id="svg2"
   width="1600"
   height="1600"
   viewBox="0 0 1600 1600"
   xmlns="http://www.w3.org/2000/svg"
   xmlns:svg="http://www.w3.org/2000/svg">
  <defs
     id="defs6">
    <clipPath
       clipPathUnits="userSpaceOnUse"
       id="clipPath18">
      <path
         d="M 0,1200 H 1200 V 0 H 0 Z"
         id="path16" />
    </clipPath>
    <linearGradient
       x1="0"
       y1="0"
       x2="1"
       y2="0"
       gradientUnits="userSpaceOnUse"
       gradientTransform="matrix(48.019779,0,0,-48.019779,290.47458,723.77228)"
       spreadMethod="pad"
       id="linearGradient54">
      <stop
         style="stop-opacity:1;stop-color:#b06b29"
         offset="0"
         id="stop36" />
      <stop
         style="stop-opacity:1;stop-color:#b06b29"
         offset="0"
         id="stop38" />
      <stop
         style="stop-opacity:1;stop-color:#b06b29"
         offset="0"
         id="stop40" />
      <stop
         style="stop-opacity:1;stop-color:#d18a29"
         offset="0.30896726"
         id="stop42" />
      <stop
         style="stop-opacity:1;stop-color:#d18a29"
         offset="0.319846"
         id="stop44" />
      <stop
         style="stop-opacity:1;stop-color:#e3aa24"
         offset="0.64805814"
         id="stop46" />
      <stop
         style="stop-opacity:1;stop-color:#e3aa24"
         offset="0.680154"
         id="stop48" />
      <stop
         style="stop-opacity:1;stop-color:#e3aa24"
         offset="0.7653884"
         id="stop50" />
      <stop
         style="stop-opacity:1;stop-color:#f4c43b"
         offset="1"
         id="stop52" />
    </linearGradient>
    <clipPath
       clipPathUnits="userSpaceOnUse"
       id="clipPath64">
      <path
         d="M 0,1200 H 1200 V 0 H 0 Z"
         id="path62" />
    </clipPath>
    <linearGradient
       x1="0"
       y1="0"
       x2="1"
       y2="0"
       gradientUnits="userSpaceOnUse"
       gradientTransform="matrix(575.0575,0,0,-575.0575,396.21234,586.24261)"
       spreadMethod="pad"
       id="linearGradient100">
      <stop
         style="stop-opacity:1;stop-color:#b06b29"
         offset="0"
         id="stop82" />
      <stop
         style="stop-opacity:1;stop-color:#b06b29"
         offset="0"
         id="stop84" />
      <stop
         style="stop-opacity:1;stop-color:#b06b29"
         offset="0"
         id="stop86" />
      <stop
         style="stop-opacity:1;stop-color:#d18a29"
         offset="0.30896726"
         id="stop88" />
      <stop
         style="stop-opacity:1;stop-color:#d18a29"
         offset="0.319846"
         id="stop90" />
      <stop
         style="stop-opacity:1;stop-color:#e3aa24"
         offset="0.64805814"
         id="stop92" />
      <stop
         style="stop-opacity:1;stop-color:#e3aa24"
         offset="0.680154"
         id="stop94" />
      <stop
         style="stop-opacity:1;stop-color:#e3aa24"
         offset="0.7653884"
         id="stop96" />
      <stop
         style="stop-opacity:1;stop-color:#f4c43b"
         offset="1"
         id="stop98" />
    </linearGradient>
    <linearGradient
       x1="0"
       y1="0"
       x2="1"
       y2="0"
       gradientUnits="userSpaceOnUse"
       gradientTransform="matrix(374.82956,0,0,-374.82956,254.95811,549.48749)"
       spreadMethod="pad"
       id="linearGradient134">
      <stop
         style="stop-opacity:1;stop-color:#b06b29"
         offset="0"
         id="stop116" />
      <stop
         style="stop-opacity:1;stop-color:#b06b29"
         offset="0"
         id="stop118" />
      <stop
         style="stop-opacity:1;stop-color:#b06b29"
         offset="0"
         id="stop120" />
      <stop
         style="stop-opacity:1;stop-color:#d18a29"
         offset="0.30896726"
         id="stop122" />
      <stop
         style="stop-opacity:1;stop-color:#d18a29"
         offset="0.319846"
         id="stop124" />
      <stop
         style="stop-opacity:1;stop-color:#e3aa24"
         offset="0.64805814"
         id="stop126" />
      <stop
         style="stop-opacity:1;stop-color:#e3aa24"
         offset="0.680154"
         id="stop128" />
      <stop
         style="stop-opacity:1;stop-color:#e3aa24"
         offset="0.7653884"
         id="stop130" />
      <stop
         style="stop-opacity:1;stop-color:#f4c43b"
         offset="1"
         id="stop132" />
    </linearGradient>
    <clipPath
       clipPathUnits="userSpaceOnUse"
       id="clipPath144">
      <path
         d="M 0,1200 H 1200 V 0 H 0 Z"
         id="path142" />
    </clipPath>
    <linearGradient
       x1="0"
       y1="0"
       x2="1"
       y2="0"
       gradientUnits="userSpaceOnUse"
       gradientTransform="matrix(29.905495,0,0,-29.905495,390.45932,563.40399)"
       spreadMethod="pad"
       id="linearGradient200">
      <stop
         style="stop-opacity:1;stop-color:#b06b29"
         offset="0"
         id="stop182" />
      <stop
         style="stop-opacity:1;stop-color:#b06b29"
         offset="0"
         id="stop184" />
      <stop
         style="stop-opacity:1;stop-color:#b06b29"
         offset="0"
         id="stop186" />
      <stop
         style="stop-opacity:1;stop-color:#d18a29"
         offset="0.30896726"
         id="stop188" />
      <stop
         style="stop-opacity:1;stop-color:#d18a29"
         offset="0.319846"
         id="stop190" />
      <stop
         style="stop-opacity:1;stop-color:#e3aa24"
         offset="0.64805814"
         id="stop192" />
      <stop
         style="stop-opacity:1;stop-color:#e3aa24"
         offset="0.680154"
         id="stop194" />
      <stop
         style="stop-opacity:1;stop-color:#e3aa24"
         offset="0.7653884"
         id="stop196" />
      <stop
         style="stop-opacity:1;stop-color:#f4c43b"
         offset="1"
         id="stop198" />
    </linearGradient>
    <linearGradient
       x1="0"
       y1="0"
       x2="1"
       y2="0"
       gradientUnits="userSpaceOnUse"
       gradientTransform="matrix(32.74662,0,0,-32.74662,414.98599,563.40399)"
       spreadMethod="pad"
       id="linearGradient234">
      <stop
         style="stop-opacity:1;stop-color:#b06b29"
         offset="0"
         id="stop216" />
      <stop
         style="stop-opacity:1;stop-color:#b06b29"
         offset="0"
         id="stop218" />
      <stop
         style="stop-opacity:1;stop-color:#b06b29"
         offset="0"
         id="stop220" />
      <stop
         style="stop-opacity:1;stop-color:#d18a29"
         offset="0.30896726"
         id="stop222" />
      <stop
         style="stop-opacity:1;stop-color:#d18a29"
         offset="0.319846"
         id="stop224" />
      <stop
         style="stop-opacity:1;stop-color:#e3aa24"
         offset="0.64805814"
         id="stop226" />
      <stop
         style="stop-opacity:1;stop-color:#e3aa24"
         offset="0.680154"
         id="stop228" />
      <stop
         style="stop-opacity:1;stop-color:#e3aa24"
         offset="0.7653884"
         id="stop230" />
      <stop
         style="stop-opacity:1;stop-color:#f4c43b"
         offset="1"
         id="stop232" />
    </linearGradient>
    <linearGradient
       x1="0"
       y1="0"
       x2="1"
       y2="0"
       gradientUnits="userSpaceOnUse"
       gradientTransform="matrix(31.59701,0,0,-31.59701,441.60574,563.40399)"
       spreadMethod="pad"
       id="linearGradient268">
      <stop
         style="stop-opacity:1;stop-color:#b06b29"
         offset="0"
         id="stop250" />
      <stop
         style="stop-opacity:1;stop-color:#b06b29"
         offset="0"
         id="stop252" />
      <stop
         style="stop-opacity:1;stop-color:#b06b29"
         offset="0"
         id="stop254" />
      <stop
         style="stop-opacity:1;stop-color:#d18a29"
         offset="0.30896726"
         id="stop256" />
      <stop
         style="stop-opacity:1;stop-color:#d18a29"
         offset="0.319846"
         id="stop258" />
      <stop
         style="stop-opacity:1;stop-color:#e3aa24"
         offset="0.64805814"
         id="stop260" />
      <stop
         style="stop-opacity:1;stop-color:#e3aa24"
         offset="0.680154"
         id="stop262" />
      <stop
         style="stop-opacity:1;stop-color:#e3aa24"
         offset="0.7653884"
         id="stop264" />
      <stop
         style="stop-opacity:1;stop-color:#f4c43b"
         offset="1"
         id="stop266" />
    </linearGradient>
    <linearGradient
       x1="0"
       y1="0"
       x2="1"
       y2="0"
       gradientUnits="userSpaceOnUse"
       gradientTransform="matrix(7.1592164,0,0,-7.1592164,874.50024,753.83411)"
       spreadMethod="pad"
       id="linearGradient302">
      <stop
         style="stop-opacity:1;stop-color:#b06b29"
         offset="0"
         id="stop284" />
      <stop
         style="stop-opacity:1;stop-color:#b06b29"
         offset="0"
         id="stop286" />
      <stop
         style="stop-opacity:1;stop-color:#b06b29"
         offset="0"
         id="stop288" />
      <stop
         style="stop-opacity:1;stop-color:#d18a29"
         offset="0.30896726"
         id="stop290" />
      <stop
         style="stop-opacity:1;stop-color:#d18a29"
         offset="0.319846"
         id="stop292" />
      <stop
         style="stop-opacity:1;stop-color:#e3aa24"
         offset="0.64805814"
         id="stop294" />
      <stop
         style="stop-opacity:1;stop-color:#e3aa24"
         offset="0.680154"
         id="stop296" />
      <stop
         style="stop-opacity:1;stop-color:#e3aa24"
         offset="0.7653884"
         id="stop298" />
      <stop
         style="stop-opacity:1;stop-color:#f4c43b"
         offset="1"
         id="stop300" />
    </linearGradient>
    <clipPath
       clipPathUnits="userSpaceOnUse"
       id="clipPath312">
      <path
         d="M 0,1200 H 1200 V 0 H 0 Z"
         id="path310" />
    </clipPath>
    <linearGradient
       x1="0"
       y1="0"
       x2="1"
       y2="0"
       gradientUnits="userSpaceOnUse"
       gradientTransform="matrix(26.091181,0,0,-26.091181,872.74158,756.49805)"
       spreadMethod="pad"
       id="linearGradient360">
      <stop
         style="stop-opacity:1;stop-color:#b06b29"
         offset="0"
         id="stop342" />
      <stop
         style="stop-opacity:1;stop-color:#b06b29"
         offset="0"
         id="stop344" />
      <stop
         style="stop-opacity:1;stop-color:#b06b29"
         offset="0"
         id="stop346" />
      <stop
         style="stop-opacity:1;stop-color:#d18a29"
         offset="0.30896726"
         id="stop348" />
      <stop
         style="stop-opacity:1;stop-color:#d18a29"
         offset="0.319846"
         id="stop350" />
      <stop
         style="stop-opacity:1;stop-color:#e3aa24"
         offset="0.64805814"
         id="stop352" />
      <stop
         style="stop-opacity:1;stop-color:#e3aa24"
         offset="0.680154"
         id="stop354" />
      <stop
         style="stop-opacity:1;stop-color:#e3aa24"
         offset="0.7653884"
         id="stop356" />
      <stop
         style="stop-opacity:1;stop-color:#f4c43b"
         offset="1"
         id="stop358" />
    </linearGradient>
    <clipPath
       clipPathUnits="userSpaceOnUse"
       id="clipPath370">
      <path
         d="M 0,1200 H 1200 V 0 H 0 Z"
         id="path368" />
    </clipPath>
    <linearGradient
       x1="0"
       y1="0"
       x2="1"
       y2="0"
       gradientUnits="userSpaceOnUse"
       gradientTransform="matrix(11.477561,0,0,-11.477561,940.42896,736.96832)"
       spreadMethod="pad"
       id="linearGradient406">
      <stop
         style="stop-opacity:1;stop-color:#b06b29"
         offset="0"
         id="stop388" />
      <stop
         style="stop-opacity:1;stop-color:#b06b29"
         offset="0"
         id="stop390" />
      <stop
         style="stop-opacity:1;stop-color:#b06b29"
         offset="0"
         id="stop392" />
      <stop
         style="stop-opacity:1;stop-color:#d18a29"
         offset="0.30896726"
         id="stop394" />
      <stop
         style="stop-opacity:1;stop-color:#d18a29"
         offset="0.319846"
         id="stop396" />
      <stop
         style="stop-opacity:1;stop-color:#e3aa24"
         offset="0.64805814"
         id="stop398" />
      <stop
         style="stop-opacity:1;stop-color:#e3aa24"
         offset="0.680154"
         id="stop400" />
      <stop
         style="stop-opacity:1;stop-color:#e3aa24"
         offset="0.7653884"
         id="stop402" />
      <stop
         style="stop-opacity:1;stop-color:#f4c43b"
         offset="1"
         id="stop404" />
    </linearGradient>
    <linearGradient
       x1="0"
       y1="0"
       x2="1"
       y2="0"
       gradientUnits="userSpaceOnUse"
       gradientTransform="matrix(109.42871,0,0,-109.42871,846.26331,740.71948)"
       spreadMethod="pad"
       id="linearGradient440">
      <stop
         style="stop-opacity:1;stop-color:#b06b29"
         offset="0"
         id="stop422" />
      <stop
         style="stop-opacity:1;stop-color:#b06b29"
         offset="0"
         id="stop424" />
      <stop
         style="stop-opacity:1;stop-color:#b06b29"
         offset="0"
         id="stop426" />
      <stop
         style="stop-opacity:1;stop-color:#d18a29"
         offset="0.30896726"
         id="stop428" />
      <stop
         style="stop-opacity:1;stop-color:#d18a29"
         offset="0.319846"
         id="stop430" />
      <stop
         style="stop-opacity:1;stop-color:#e3aa24"
         offset="0.64805814"
         id="stop432" />
      <stop
         style="stop-opacity:1;stop-color:#e3aa24"
         offset="0.680154"
         id="stop434" />
      <stop
         style="stop-opacity:1;stop-color:#e3aa24"
         offset="0.7653884"
         id="stop436" />
      <stop
         style="stop-opacity:1;stop-color:#f4c43b"
         offset="1"
         id="stop438" />
    </linearGradient>
    <clipPath
       clipPathUnits="userSpaceOnUse"
       id="clipPath450">
      <path
         d="M 0,1200 H 1200 V 0 H 0 Z"
         id="path448" />
    </clipPath>
  </defs>
  <g
     id="g8"
     transform="matrix(1.3333333,0,0,-1.3333333,0,1600)">
    <path
       d="M 0,0 H 1200 V 1200 H 0 Z"
       style="fill:#1c1c1c;fill-opacity:1;fill-rule:nonzero;stroke:none"
       id="path10" />
    <g
       id="g12">
      <g
         id="g14"
         clip-path="url(#clipPath18)">
        <g
           id="g20"
           transform="translate(382.9216,639.5526)">
          <path
             d="m 0,0 c -23.196,-1.685 -45.395,-0.369 -68.175,-0.801 -5.378,-0.103 -6.487,2.285 -4.791,7.107 6.145,17.475 12.18,34.953 18.097,52.428 1.541,4.551 4.001,6.41 8.967,6.369 20.24,-0.167 40.519,-0.234 60.9,0.011 6.438,0.077 5.942,-3.079 4.291,-7.848 C 12.669,38.14 6.297,19.014 -0.165,-0.11 -0.164,-0.109 0,0 0,0"
             style="fill:#ffffff;fill-opacity:1;fill-rule:nonzero;stroke:none"
             id="path22" />
        </g>
      </g>
    </g>
    <g
       id="g24">
      <g
         id="g26">
        <g
           id="g32">
          <g
             id="g34">
            <path
               d="m 299.686,736.253 c -2.623,-8.446 -5.624,-16.909 -8.724,-25.361 v 0 c -1.083,-2.952 -0.44,-3.913 2.718,-3.865 v 0 c 10.013,0.154 19.97,0.129 29.892,0.014 v 0 c 2.863,-0.033 4.46,0.449 5.48,3.648 v 0 c 2.755,8.637 5.779,17.285 8.929,25.925 v 0 c 1.047,2.876 0.647,4.037 -2.65,3.883 v 0 c -5.05,-0.234 -9.981,-0.062 -14.963,-0.062 v 0 c -4.782,0 -9.636,-0.178 -14.322,0.06 v 0 c -0.306,0.015 -0.599,0.024 -0.88,0.024 v 0 c -2.831,0 -4.427,-0.871 -5.48,-4.266"
               style="fill:url(#linearGradient54);stroke:none"
               id="path56" />
          </g>
        </g>
      </g>
    </g>
    <g
       id="g58">
      <g
         id="g60"
         clip-path="url(#clipPath64)">
        <g
           id="g66"
           transform="translate(350.3557,743.2271)">
          <path
             d="m 0,0 c -11.524,0.186 -11.141,-1.589 -7.256,9.801 3.588,10.517 2.637,8.985 14.034,9.052 12.391,0.073 10.719,0.331 7.407,-9.31 C 10.542,-1.063 12.386,0.098 0,0"
             style="fill:#ffffff;fill-opacity:1;fill-rule:nonzero;stroke:none"
             id="path68" />
        </g>
      </g>
    </g>
    <g
       id="g70">
      <g
         id="g72">
        <g
           id="g78">
          <g
             id="g80">
            <path
               d="m 887.285,701.931 c -7.243,-2.234 -12.982,-7.46 -18.516,-12.558 v 0 C 816.871,641.455 764.972,593.549 713.074,545.631 v 0 C 690.822,595.45 669.7,645.718 649.734,696.384 v 0 c -0.809,2.067 -1.733,4.276 -3.582,5.508 v 0 c -1.708,1.13 -3.826,1.182 -5.804,1.182 v 0 c -75.087,-0.014 -150.175,-0.026 -225.275,-0.039 v 0 c -3.312,-9.849 -6.638,-19.696 -9.964,-29.558 v 0 c -1.656,-4.917 -3.325,-9.848 -4.982,-14.778 v 0 c -1.322,-3.903 -4.211,-8.988 -3.89,-13.303 v 0 c 0.282,-3.838 2.991,-5.135 6.382,-5.302 v 0 c 5.264,-0.27 10.579,0.013 15.831,0.026 v 0 c 10.336,0.012 20.672,0.025 31.008,0.038 v 0 c 42.192,0.064 84.383,0.128 126.588,0.193 v 0 c 7.357,0.012 15.485,-0.244 21.302,-5.252 v 0 c 4.006,-3.428 6.163,-8.513 8.166,-13.392 v 0 c 17.398,-42.179 34.796,-84.37 52.193,-126.549 v 0 c 2.967,-7.203 6.164,-14.728 12.083,-19.812 v 0 c 8.41,-7.216 20.621,-7.729 30.418,-4.096 v 0 c 9.797,3.633 17.718,10.747 25.422,17.719 v 0 c 53.466,48.406 106.931,96.812 160.409,145.219 v 0 C 868.885,581.441 851.731,528.695 834.577,475.949 v 0 c -0.411,-1.284 -0.784,-2.863 0.115,-3.955 v 0 c 0.796,-0.988 2.183,-1.078 3.39,-1.078 v 0 c 11.826,-0.039 23.651,-0.077 35.477,-0.103 v 0 c 6.51,-0.026 13.494,0.116 18.489,4.019 v 0 c 4.275,3.352 6.265,8.859 8.076,14.098 v 0 c 24.447,70.954 48.163,142.201 71.146,213.732 v 0 c -8.962,0.103 -17.924,0.206 -26.887,0.296 v 0 C 930.131,689.36 919.859,680.372 919.859,680.372 v 0 c 0,0 -7.062,9.194 -16.371,23.048 v 0 c -1.011,0.012 -2.025,0.023 -3.039,0.023 v 0 c -4.484,0 -8.966,-0.214 -13.164,-1.512"
               style="fill:url(#linearGradient100);stroke:none"
               id="path102" />
          </g>
        </g>
      </g>
    </g>
    <g
       id="g104">
      <g
         id="g106">
        <g
           id="g112">
          <g
             id="g114">
            <path
               d="M 305.592,622.293 C 291.557,579.655 270.504,524.264 256.331,481.625 v 0 c -2.886,-8.681 -1.511,-10.827 6.909,-10.819 v 0 c 27.419,0.025 54.815,-0.024 82.21,-0.072 v 0 c 67.48,-0.118 134.961,-0.237 202.8,0.728 v 0 c 22.399,0.318 44.477,9.054 66.115,23.135 v 0 c 13.509,8.79 17.425,17.2 14.52,29.322 v 0 c -0.833,3.473 -2.073,6.762 -3.39,9.974 v 0 c -5.859,14.276 -11.809,28.496 -17.733,42.733 v 0 c -2.469,5.932 -4.955,11.853 -7.936,18.984 v 0 c -1.345,-3.046 -1.928,-4.459 -2.592,-5.861 v 0 c -5.568,-11.745 -8.236,-23.711 -14.548,-35.417 v 0 C 576.728,543.281 568.354,536.474 556.529,534.2 v 0 c -8.648,-1.662 -16.875,-1.849 -25.039,-1.86 v 0 c -62.987,-0.085 -114.19,0.035 -177.224,-0.195 v 0 c -5.836,-0.021 -6.269,1.87 -4.387,7.312 v 0 c 6.894,19.927 20.1,52.612 26.518,72.541 v 0 c 3.582,11.121 0.777,15.643 -9.796,15.873 v 0 c -13.773,0.298 -39.427,0.129 -53.194,0.442 v 0 c -0.147,0.004 -0.29,0.005 -0.431,0.005 v 0 c -4.143,0 -5.886,-1.474 -7.384,-6.025"
               style="fill:url(#linearGradient134);stroke:none"
               id="path136" />
          </g>
        </g>
      </g>
    </g>
    <g
       id="g138">
      <g
         id="g140"
         clip-path="url(#clipPath144)">
        <g
           id="g146"
           transform="translate(426.5987,606.863)">
          <path
             d="M 0,0 1.314,4.397 C 1.37,4.644 1.323,4.867 1.173,5.065 1.024,5.264 0.827,5.363 0.584,5.363 H -9.844 c -0.149,0 -0.308,-0.065 -0.479,-0.195 -0.17,-0.13 -0.289,-0.291 -0.355,-0.483 l -1.47,-5.26 h 11.3 C -0.442,-0.575 -0.16,-0.384 0,0 m -9.774,-6.966 h -4.281 c 0.014,0.014 0.022,0.028 0.023,0.041 10e-4,0.014 0.002,0.024 0.002,0.031 0,0.007 10e-4,0.014 10e-4,0.021 10e-4,0.006 0,0.003 0,-0.011 -10e-4,-0.013 -0.006,-0.038 -0.015,-0.071 -0.009,-0.035 -0.022,-0.079 -0.039,-0.134 -0.017,-0.055 -0.039,-0.127 -0.064,-0.216 -0.026,-0.089 -0.06,-0.195 -0.102,-0.318 -0.042,-0.124 -0.085,-0.267 -0.129,-0.432 -0.044,-0.164 -0.096,-0.353 -0.157,-0.565 -0.061,-0.213 -0.131,-0.455 -0.209,-0.729 -0.078,-0.275 -0.165,-0.572 -0.259,-0.894 -0.095,-0.322 -0.203,-0.678 -0.322,-1.069 -0.119,-0.39 -0.245,-0.818 -0.375,-1.284 -0.131,-0.466 -0.275,-0.969 -0.431,-1.51 -0.156,-0.542 -0.322,-1.12 -0.496,-1.737 h -6.755 L -16.57,7.11 c 1.247,3.027 3.257,4.541 6.03,4.541 H 2.667 c 1.88,0 3.359,-0.712 4.439,-2.137 C 8.185,8.089 8.476,6.445 7.98,4.582 7.404,2.541 6.742,0.206 5.993,-2.425 5.584,-3.754 4.822,-4.843 3.706,-5.692 2.591,-6.541 1.336,-6.966 -0.057,-6.966 h -2.475 l 4.75,-8.918 h -7.223 z"
             style="fill:#ffffff;fill-opacity:1;fill-rule:nonzero;stroke:none"
             id="path148" />
        </g>
        <g
           id="g150"
           transform="translate(437.3547,613.9521)">
          <path
             d="M 0,0 C 1.248,3.041 3.272,4.562 6.071,4.562 H 24.817 L 22.976,-1.747 H 12.062 6.807 C 6.658,-1.747 6.499,-1.808 6.329,-1.931 6.159,-2.055 6.033,-2.219 5.953,-2.425 L 4.89,-6.062 h 11.016 l -1.778,-6.287 H 3.051 l -0.984,-3.35 c -0.057,-0.26 -0.01,-0.486 0.14,-0.678 0.15,-0.192 0.347,-0.288 0.59,-0.288 h 8.379 l -0.002,-0.02 H 18.6 c -0.555,-1.918 -1.168,-4.014 -1.84,-6.288 H 0.733 c -1.907,0 -3.407,0.712 -4.5,2.137 -1.093,1.425 -1.391,3.069 -0.894,4.932 z"
             style="fill:#ffffff;fill-opacity:1;fill-rule:nonzero;stroke:none"
             id="path152" />
        </g>
        <g
           id="g154"
           transform="translate(463.6878,613.9521)">
          <path
             d="M 0,0 C 1.315,3.041 3.312,4.562 5.99,4.562 H 7.715 L 18.494,-9.719 22.91,4.562 h 6.472 l -8.544,-27.535 h -6.37 l 1.502,5.137 -10.641,14.219 -5.691,-19.356 h -6.472 z"
             style="fill:#ffffff;fill-opacity:1;fill-rule:nonzero;stroke:none"
             id="path156" />
        </g>
        <g
           id="g158"
           transform="translate(502.004,612.2466)">
          <path
             d="m 0,0 h -9.008 l 1.92,6.267 H 17.033 L 15.114,0 H 6.37 L 0.578,-21.267 h -6.452 z"
             style="fill:#ffffff;fill-opacity:1;fill-rule:nonzero;stroke:none"
             id="path160" />
        </g>
        <g
           id="g162"
           transform="translate(520.168,613.9521)">
          <path
             d="M 0,0 C 1.261,3.041 3.231,4.562 5.909,4.562 H 25.73 l -8.341,-27.535 h -6.451 l 2.308,7.603 4.151,13.623 H 6.442 C 6.293,-1.747 6.137,-1.808 5.974,-1.931 5.81,-2.055 5.695,-2.219 5.628,-2.425 L 3.603,-9.082 h 9.677 l -1.922,-6.309 H 1.701 l -2.307,-7.582 h -6.411 z"
             style="fill:#ffffff;fill-opacity:1;fill-rule:nonzero;stroke:none"
             id="path164" />
        </g>
        <g
           id="g166"
           transform="translate(546.6633,613.9521)">
          <path
             d="M 0,0 C 0.412,1.383 1.186,2.49 2.32,3.319 3.455,4.147 4.725,4.562 6.132,4.562 H 8.06 L 3.632,-10.541 h 0.02 l -1.524,-5.158 c -0.057,-0.26 -0.011,-0.486 0.14,-0.678 0.15,-0.192 0.353,-0.288 0.61,-0.288 h 8.46 l -10e-4,-0.02 h 7.526 c -0.396,-1.343 -0.819,-2.781 -1.267,-4.315 -0.19,-0.644 -0.387,-1.302 -0.592,-1.973 H 0.794 c -1.934,0 -3.458,0.712 -4.571,2.137 -1.114,1.425 -1.415,3.069 -0.904,4.932 z"
             style="fill:#ffffff;fill-opacity:1;fill-rule:nonzero;stroke:none"
             id="path168" />
        </g>
      </g>
    </g>
    <g
       id="g170">
      <g
         id="g172">
        <g
           id="g178">
          <g
             id="g180">
            <path
               d="m 401.62,577.172 c -2.8,0 -4.838,-1.521 -6.112,-4.562 v 0 l -4.804,-15.905 c -0.511,-1.863 -0.223,-3.507 0.864,-4.931 v 0 c 1.086,-1.425 2.576,-2.138 4.47,-2.138 v 0 h 16.047 c 0.685,2.275 1.318,4.371 1.901,6.289 v 0 h -7.446 l 10e-4,0.02 h -8.359 c -0.257,0 -0.46,0.096 -0.61,0.287 v 0 c -0.15,0.192 -0.197,0.418 -0.139,0.679 v 0 l 4.007,13.274 c 0.08,0.205 0.206,0.37 0.376,0.493 v 0 c 0.17,0.124 0.329,0.185 0.478,0.185 v 0 h 5.255 10.914 l 1.902,6.309 z"
               style="fill:url(#linearGradient200);stroke:none"
               id="path202" />
          </g>
        </g>
      </g>
    </g>
    <g
       id="g204">
      <g
         id="g206">
        <g
           id="g212">
          <g
             id="g214">
            <path
               d="m 427.912,577.172 c -2.678,0 -4.648,-1.521 -5.909,-4.562 v 0 l -7.017,-22.974 h 6.411 l 2.307,7.583 h 9.657 l 1.921,6.308 h -9.677 l 2.025,6.658 c 0.068,0.205 0.183,0.37 0.346,0.493 v 0 c 0.164,0.124 0.32,0.185 0.469,0.185 v 0 H 439.4 l -4.151,-13.623 -2.309,-7.604 h 6.452 l 8.341,27.536 z"
               style="fill:url(#linearGradient234);stroke:none"
               id="path236" />
          </g>
        </g>
      </g>
    </g>
    <g
       id="g238">
      <g
         id="g240">
        <g
           id="g246">
          <g
             id="g248">
            <path
               d="m 454.448,577.172 c -2.773,0 -4.783,-1.515 -6.03,-4.542 v 0 l -6.812,-22.952 h 6.755 c 0.175,0.616 0.34,1.195 0.496,1.736 v 0 c 0.157,0.541 0.3,1.045 0.431,1.51 v 0 c 0.131,0.466 0.256,0.895 0.375,1.284 v 0 c 0.119,0.391 0.227,0.747 0.322,1.069 v 0 c 0.094,0.322 0.181,0.62 0.259,0.894 v 0 c 0.078,0.274 0.148,0.517 0.209,0.729 v 0 c 0.061,0.213 0.113,0.402 0.157,0.565 v 0 c 0.044,0.165 0.088,0.309 0.129,0.432 v 0 c 0.041,0.124 0.075,0.229 0.102,0.318 v 0 c 0.026,0.089 0.047,0.161 0.064,0.216 v 0 c 0.015,0.05 0.027,0.09 0.036,0.123 v 0 h 4.273 l 4.77,-8.918 h 7.222 l -4.749,8.918 h 2.475 c 1.392,0 2.647,0.425 3.763,1.275 v 0 c 1.115,0.848 1.877,1.937 2.287,3.267 v 0 c 0.748,2.63 1.41,4.965 1.986,7.006 v 0 c 0.497,1.863 0.205,3.508 -0.874,4.932 v 0 c -1.08,1.425 -2.56,2.138 -4.44,2.138 v 0 z m -0.138,-6.966 c 0.066,0.191 0.185,0.352 0.356,0.482 v 0 c 0.17,0.131 0.329,0.195 0.478,0.195 v 0 h 10.428 c 0.244,0 0.44,-0.099 0.589,-0.297 v 0 c 0.151,-0.199 0.197,-0.422 0.141,-0.668 v 0 l -1.314,-4.398 c -0.16,-0.383 -0.442,-0.575 -0.848,-0.575 v 0 h -11.3 z m -3.352,-11.569 c 10e-4,0.013 0.002,0.016 10e-4,0.01 v 0 c 0,-0.007 -10e-4,-0.013 -10e-4,-0.021 v 0 c 0,-0.007 -0.001,-0.017 -0.002,-0.03 v 0 c -0.001,-0.01 -0.005,-0.02 -0.011,-0.029 v 0 c 0.008,0.032 0.013,0.056 0.013,0.07"
               style="fill:url(#linearGradient268);stroke:none"
               id="path270" />
          </g>
        </g>
      </g>
    </g>
    <g
       id="g272">
      <g
         id="g274">
        <g
           id="g280">
          <g
             id="g282">
            <path
               d="m 875.788,754.999 c -1.473,-1.187 -1.655,-2.906 -0.686,-3.122 v 0 c 0.147,-0.032 0.29,-0.088 0.428,-0.155 v 0 c 1.674,1.088 3.913,2.538 6.13,3.968 v 0 c -0.884,0.163 -1.733,0.256 -2.517,0.256 v 0 c -1.359,0 -2.526,-0.278 -3.355,-0.947"
               style="fill:url(#linearGradient302);stroke:none"
               id="path304" />
          </g>
        </g>
      </g>
    </g>
    <g
       id="g306">
      <g
         id="g308"
         clip-path="url(#clipPath312)">
        <g
           id="g314"
           transform="translate(851.8525,740.9634)">
          <path
             d="M 0,0 C 0.431,0.22 0.881,0.714 1.14,1.25 1.172,1.316 1.207,1.397 1.245,1.487 1.162,1.511 1.078,1.534 0.996,1.556 0.449,1.116 -0.084,0.604 -0.6,-0.018 -0.307,-0.04 -0.073,-0.037 0,0"
             style="fill:#f9f9f9;fill-opacity:1;fill-rule:nonzero;stroke:none"
             id="path316" />
        </g>
        <g
           id="g318"
           transform="translate(854.5825,739.6345)">
          <path
             d="M 0,0 C 0.227,-0.139 0.901,-0.525 2.814,-0.74 2.966,-0.757 3.348,-0.539 3.771,-0.26 2.582,0.816 0.674,2.069 -0.623,2.556 -0.711,2.188 -0.774,1.868 -0.775,1.7 -0.779,1.116 -0.228,0.139 0,0"
             style="fill:#f9f9f9;fill-opacity:1;fill-rule:nonzero;stroke:none"
             id="path320" />
        </g>
        <g
           id="g322"
           transform="translate(891.0645,740.1682)">
          <path
             d="m 0,0 c 0.097,0.184 0.186,0.559 0.263,0.982 -2.575,-0.365 -5.471,-1.464 -7.759,-2.516 0.475,-0.331 0.932,-0.601 1.167,-0.595 2.8,0.068 3.95,0.396 4.343,0.516 C -1.593,-1.493 -0.302,-0.574 0,0"
             style="fill:#f9f9f9;fill-opacity:1;fill-rule:nonzero;stroke:none"
             id="path324" />
        </g>
        <g
           id="g326"
           transform="translate(893.6154,739.6567)">
          <path
             d="M 0,0 C 0.243,-0.124 2.552,-0.064 3.328,0.166 3.783,0.301 4.973,0.764 5.27,1.291 5.355,1.443 5.459,1.76 5.563,2.133 4.012,2.172 1.782,1.995 -0.969,1.662 -0.964,1.528 -0.955,1.407 -0.942,1.315 -0.861,0.768 -0.489,0.249 0,0"
             style="fill:#f9f9f9;fill-opacity:1;fill-rule:nonzero;stroke:none"
             id="path328" />
        </g>
      </g>
    </g>
    <g
       id="g330">
      <g
         id="g332">
        <g
           id="g338">
          <g
             id="g340">
            <path
               d="m 896.31,763.345 c -6.603,-1.662 -23.568,-13.413 -23.568,-13.413 v 0 l 0.802,-0.544 c 19.776,14.965 25.289,14.199 25.289,14.199 v 0 c 0,0 -0.125,0.021 -0.392,0.021 v 0 c -0.388,0 -1.079,-0.044 -2.131,-0.263"
               style="fill:url(#linearGradient360);stroke:none"
               id="path362" />
          </g>
        </g>
      </g>
    </g>
    <g
       id="g364">
      <g
         id="g366"
         clip-path="url(#clipPath370)">
        <g
           id="g372"
           transform="translate(972.9565,750.0242)">
          <path
             d="m 0,0 c -0.491,-2.613 -1.23,-5.168 -2.194,-7.633 -0.354,-0.952 -0.786,-1.945 -1.283,-2.968 -1.235,-2.59 -2.713,-5.073 -4.404,-7.409 -8.29,-12.167 -22.427,-26.499 -32.36,-35.977 -6.563,-6.262 -11.293,-10.4 -11.293,-10.4 0,0 -3.251,4.233 -7.538,10.613 -3.512,5.232 -7.734,11.902 -11.429,18.861 13.735,-5.913 18.672,9.052 18.672,9.052 l 12.351,2.79 c 0.887,0.154 1.762,0.349 2.631,0.592 10.388,2.891 19.251,11.86 21.244,22.479 2.424,12.954 -6.297,23.455 -19.476,23.455 -6.456,0 -12.777,-2.519 -17.844,-6.604 -8.816,0.461 -14.876,0.301 -19.038,-0.119 8.803,13.049 24.052,22.06 39.755,22.06 C -10.406,38.792 4.015,21.427 0,0"
             style="fill:#ffffff;fill-opacity:1;fill-rule:nonzero;stroke:none"
             id="path374" />
        </g>
      </g>
    </g>
    <g
       id="g376">
      <g
         id="g378">
        <g
           id="g384">
          <g
             id="g386">
            <path
               d="m 946.944,741.943 c -0.674,-0.361 -1.387,-0.868 -2.129,-1.556 v 0 c -0.099,-0.092 -0.198,-0.196 -0.297,-0.305 v 0 c -0.054,-0.061 -0.11,-0.124 -0.165,-0.19 v 0 c -1.419,-1.717 -2.722,-5.06 -3.476,-7.248 v 0 c -0.185,-0.535 -0.336,-0.996 -0.448,-1.353 v 0 c 5.607,2.96 9.191,6.628 11.478,10.192 v 0 c -0.024,0.03 -0.046,0.06 -0.071,0.089 v 0 c -0.551,0.66 -1.379,1.073 -2.404,1.073 v 0 c -0.737,0 -1.576,-0.213 -2.488,-0.702"
               style="fill:url(#linearGradient406);stroke:none"
               id="path408" />
          </g>
        </g>
      </g>
    </g>
    <g
       id="g410">
      <g
         id="g412">
        <g
           id="g418">
          <g
             id="g420">
            <path
               d="m 904.532,764.336 c -3.276,-0.108 -5.923,-0.439 -8.222,-0.991 v 0 c 6.645,0.172 24.128,-0.624 30.576,-0.967 v 0 c 2.012,-0.107 1.282,-0.992 0.694,-1.633 v 0 c -3.465,-3.778 -7.157,-7.134 -10.468,-9.674 v 0 c -1.304,-1 -2.802,-1.836 -4.544,-1.808 v 0 c 0,0 -6.25,-0.624 -23.681,0.142 v 0 c -9.28,0.407 -14.023,0.506 -16.145,0.527 v 0 c -0.84,-0.203 -12.328,-3.014 -17.62,-5.928 v 0 c -0.237,-0.131 -0.472,-0.265 -0.706,-0.405 v 0 c 1.475,-0.653 2.834,-1.752 3.61,-2.446 v 0 c 0.035,-0.029 0.074,-0.052 0.109,-0.081 v 0 c 0.137,-0.119 0.27,-0.254 0.4,-0.395 v 0 c 0.104,-0.1 0.164,-0.163 0.164,-0.163 v 0 c -0.012,0.009 -0.023,0.016 -0.035,0.024 v 0 c 0.183,-0.21 0.357,-0.407 0.502,-0.599 v 0 c 0.075,-0.099 0.14,-0.197 0.194,-0.296 v 0 c 0.097,-0.169 0.158,-0.339 0.17,-0.515 v 0 l 1.073,-0.113 0.381,-0.039 c 0.095,0.137 0.2,0.289 0.312,0.451 v 0 c 0.908,1.291 2.342,3.183 3.213,3.59 v 0 c 1.352,0.63 9.316,3.35 9.316,3.35 v 0 c 0,0 -6.595,-3.172 -7.812,-3.71 v 0 c -0.625,-0.276 -1.291,-1.477 -1.791,-2.578 v 0 c -0.235,-0.519 -0.433,-1.016 -0.573,-1.383 v 0 l 0.203,-0.022 3.24,-0.339 0.022,-0.003 3.589,0.028 1.609,0.013 c 0.171,0.252 0.393,0.575 0.647,0.93 v 0 c 0.715,1.004 1.683,2.266 2.462,2.946 v 0 c 0.211,0.184 0.409,0.326 0.583,0.408 v 0 c 1.351,0.63 11.131,3.975 11.131,3.975 v 0 c 0,0 -6.901,-3.115 -9.105,-4.101 v 0 c -0.228,-0.103 -0.408,-0.182 -0.522,-0.234 v 0 c -0.906,-0.4 -1.897,-2.737 -2.343,-3.903 v 0 l 6.761,0.051 c 0.2,0.147 0.377,0.272 0.544,0.385 v 0 c 0.147,0.101 0.292,0.193 0.442,0.284 v 0 c 0.309,0.189 0.647,0.375 1.129,0.63 v 0 c -0.02,-0.007 -0.041,-0.013 -0.062,-0.021 v 0 c 0,0 0.117,0.057 0.313,0.148 v 0 c 0.255,0.129 0.51,0.251 0.763,0.358 v 0 c 0.063,0.026 0.13,0.046 0.194,0.071 v 0 c 1.436,0.623 3.884,1.598 6.265,2.132 v 0 c 0.384,0.085 0.766,0.159 1.141,0.218 v 0 c 0.163,0.026 0.325,0.051 0.484,0.07 v 0 c 2.665,0.335 4.797,0.493 6.392,0.484 v 0 c 1.169,-0.006 2.045,-0.103 2.634,-0.284 v 0 c 0.434,-0.132 0.717,-0.309 0.834,-0.532 v 0 c 0.452,-0.857 -0.345,-2.705 -2.176,-3.904 v 0 c 0.787,0.999 1.07,2.066 0.774,2.658 v 0 c -0.008,0.014 -0.023,0.026 -0.032,0.04 v 0 c -0.48,-0.708 -1.611,-2.244 -3.027,-2.512 v 0 c -0.71,-0.135 -3.683,-0.216 -4.645,-0.329 v 0 c -0.962,-0.114 -2.078,0.785 -2.078,0.785 v 0 c -0.382,-0.391 -1.285,-1.134 -1.933,-1.41 v 0 c -0.607,-0.259 -3.783,-0.396 -5.097,-0.25 v 0 l -3.252,-0.116 -0.095,10e-4 -6.746,0.088 -1.927,0.025 -2.252,0.03 -1.388,0.018 -2.47,0.033 -0.417,0.031 -3.886,0.287 -2.936,0.218 -0.303,0.022 -2.907,0.216 0.056,0.02 c -1.028,0.067 -2.303,0.292 -2.547,0.509 v 0 c -0.346,0.307 -0.695,1.089 -0.814,1.496 v 0 c 0,0 -1.106,-0.83 -1.73,-0.666 v 0 c -0.163,0.043 -0.429,0.098 -0.734,0.162 v 0 c -0.343,-0.521 -0.677,-1.105 -1,-1.764 v 0 c -0.506,-1.032 -0.986,-2.247 -1.434,-3.698 v 0 c -0.594,-1.92 -0.777,-3.55 -0.595,-4.908 v 0 c 0.516,-0.095 2.281,-0.233 3.415,1.965 v 0 c 0.951,1.842 2.425,2.526 4.905,2.746 v 0 c 0.257,0.024 0.526,0.042 0.806,0.055 v 0 c 1.409,0.069 3.107,0.031 5.167,-0.016 v 0 c 0.64,-0.014 1.322,-0.03 2.04,-0.043 v 0 c 0.463,-0.008 0.939,-0.017 1.437,-0.024 v 0 l 0.096,-10e-4 c 0.132,-0.001 0.262,-0.003 0.393,-0.005 v 0 c 0.301,-0.004 0.601,-0.007 0.901,-0.012 v 0 c 0.506,-0.006 1.01,-0.013 1.51,-0.02 v 0 c 0.568,-0.009 1.13,-0.018 1.687,-0.028 v 0 c 0.555,-0.01 1.103,-0.022 1.644,-0.034 v 0 c 0.195,-0.004 0.389,-0.009 0.583,-0.014 v 0 c 0.809,-0.021 1.6,-0.045 2.369,-0.074 v 0 c 0.145,-0.005 0.29,-0.011 0.434,-0.017 v 0 c 0.319,-0.012 0.632,-0.027 0.942,-0.041 v 0 c 3.733,-0.179 6.803,-0.507 8.563,-1.157 v 0 c 0.352,-0.13 0.654,-0.272 0.896,-0.43 v 0 c 0.806,-0.524 1.531,-1.162 2.231,-1.78 v 0 c 1.378,-1.215 2.679,-2.363 4.398,-2.481 v 0 c 1.574,-0.108 3.761,-0.237 5.364,-0.328 v 0 c 1.212,-0.069 2.092,-0.117 2.123,-0.117 v 0 c 0,0 -0.945,-0.101 -2.181,-0.224 v 0 c -2.087,-0.208 -5.002,-0.48 -5.592,-0.439 v 0 c -2.055,0.141 -3.535,1.447 -4.967,2.709 v 0 c -0.677,0.597 -1.377,1.215 -2.129,1.703 v 0 c -0.867,0.563 -2.702,0.925 -5.112,1.163 v 0 c -1.072,0.106 -2.258,0.189 -3.524,0.253 v 0 c -0.281,0.014 -0.566,0.028 -0.854,0.041 v 0 c -0.188,0.008 -0.377,0.016 -0.568,0.023 v 0 c -0.724,0.029 -1.467,0.053 -2.225,0.074 v 0 c -0.068,0.002 -0.137,0.003 -0.207,0.005 v 0 c -0.797,0.021 -1.61,0.039 -2.432,0.053 v 0 c -0.814,0.016 -1.638,0.028 -2.464,0.04 v 0 c -0.378,0.005 -0.758,0.011 -1.136,0.015 v 0 c -0.29,0.005 -0.58,0.008 -0.87,0.012 v 0 h -0.021 l -0.074,10e-4 c -0.616,0.008 -1.203,0.019 -1.766,0.03 v 0 c -0.602,0.011 -1.177,0.025 -1.723,0.036 v 0 c -2.353,0.054 -4.124,0.081 -5.481,-0.01 v 0 c -0.741,-0.049 -1.36,-0.133 -1.878,-0.266 v 0 c -1.133,-0.292 -1.799,-0.821 -2.273,-1.741 v 0 c -0.053,-0.102 -0.11,-0.194 -0.166,-0.289 v 0 c -0.272,-0.468 -0.573,-0.856 -0.893,-1.172 v 0 c -0.597,-0.592 -1.251,-0.945 -1.874,-1.131 v 0 c -0.435,-0.132 -0.852,-0.183 -1.224,-0.183 v 0 c -0.331,0 -0.624,0.038 -0.859,0.099 v 0 c -0.459,-1.267 -1.449,-4.741 1.301,-5.192 v 0 c 3.373,-0.554 25.615,-3.598 35.582,-3.295 v 0 c 9.966,0.303 18.25,2.577 18.25,2.577 v 0 c 0,0 1.335,-5.874 7.829,-5.406 v 0 c 6.495,0.468 8.732,8.853 8.732,8.853 v 0 l 17.494,3.33 c 1.536,0.595 2.949,1.241 4.258,1.924 v 0 c 10e-4,0.008 10e-4,0.015 0.002,0.023 v 0 c 0.15,1.364 0.575,4.507 1.5,7.101 v 0 c 0.132,0.371 0.275,0.73 0.428,1.072 v 0 c 0.422,0.938 0.883,1.721 1.373,2.381 v 0 l -3.99,-0.816 -19.824,-4.054 c 0.384,-1.057 0.526,-2.373 0.298,-3.994 v 0 c -0.011,-0.077 -0.025,-0.154 -0.037,-0.231 v 0 c -0.177,-1.141 -0.465,-2.219 -0.768,-3.137 v 0 c -0.21,-0.638 -0.424,-1.195 -0.612,-1.645 v 0 l 0.631,1.392 0.001,10e-4 15.679,1.706 0.809,0.088 -0.81,-0.2 -15.664,-3.877 -1.181,-0.291 c 0.497,1.055 0.867,2.221 1.1,3.381 v 0 c 0.179,0.89 0.274,1.774 0.28,2.604 v 0 c 0.012,1.756 -0.378,3.261 -1.251,4.005 v 0 c -0.586,0.498 -1.512,0.91 -2.615,1.127 v 0 c -0.691,0.137 -1.453,0.197 -2.247,0.153 v 0 c -1.366,-0.074 -2.822,-0.455 -4.171,-1.279 v 0 c -0.506,-0.311 -0.999,-0.682 -1.465,-1.125 v 0 c -0.054,-0.051 -0.103,-0.105 -0.157,-0.157 v 0 c -0.7,-0.694 -1.307,-1.491 -1.84,-2.38 v 0 c -1.146,-1.916 -1.954,-4.257 -2.622,-6.93 v 0 c 0,0 0.092,2.72 0.867,5.443 v 0 c 0.144,0.505 0.31,1.009 0.505,1.496 v 0 c 0.127,0.318 0.264,0.629 0.416,0.927 v 0 c 1.104,2.182 2.337,3.691 3.634,4.702 v 0 c 2.248,1.752 4.689,2.003 6.988,1.637 v 0 c 1.119,-0.178 2.205,-0.666 3.047,-1.515 v 0 l 25.652,3.765 c 1.637,1.747 3.554,2.254 5.532,2.059 v 0 c 1.241,-0.122 2.268,-0.787 2.901,-1.919 v 0 c 1.915,3.388 2.713,6.591 3.038,8.892 v 0 c -0.484,0.255 -0.903,0.417 -1.056,0.65 v 0 c -7.724,11.757 -14.047,10.991 -17.542,11.256 v 0 c -1.016,0.076 -21.537,0.847 -30.188,0.847 v 0 c -0.948,0 -1.752,-0.009 -2.374,-0.029 m 25.007,-4.431 c 1.173,1.495 3.531,2.436 4.756,2.399 v 0 l 2.318,-0.075 c 0,0 2.944,-0.015 3.857,-0.18 v 0 c 5.9,-1.071 10.1,-8.041 10.239,-8.862 v 0 c 0.172,-1.015 0.126,-1.476 -1.591,-1.751 v 0 l -25.132,-1.993 c -0.196,-0.012 -0.357,0.032 -0.484,0.109 v 0 c 0.426,0.213 0.866,0.412 1.267,0.551 v 0 c 1.41,0.492 7.294,0.538 8.232,0.867 v 0 c 1.809,0.636 2.427,2.199 2.338,3.341 v 0 c -0.088,1.14 -2.534,1.56 -4.655,1.618 v 0 c -2.123,0.057 -3.015,-0.776 -4.434,-2.071 v 0 c -0.555,-0.506 -1.123,-0.966 -1.709,-1.371 v 0 c 2.145,3.533 3.418,5.406 4.998,7.418 m -20.126,-39.923 c 1.595,0.007 3.278,1.206 4.64,3.105 v 0 c 1.084,1.512 1.965,3.467 2.436,5.612 v 0 c 0.325,1.477 0.416,2.876 0.309,4.113 v 0 c -0.068,0.779 -0.215,1.493 -0.432,2.122 v 0 c 0.376,-0.592 0.661,-1.313 0.844,-2.136 v 0 c 0.335,-1.511 0.324,-3.357 -0.112,-5.341 v 0 c -0.332,-1.513 -0.873,-2.932 -1.55,-4.172 v 0 c -1.554,-2.847 -3.825,-4.752 -5.946,-4.685 v 0 c -0.165,0.005 -0.325,0.024 -0.48,0.052 v 0 c -1.478,0.268 -2.554,1.546 -3.065,3.413 v 0 c -0.213,0.778 -0.328,1.658 -0.333,2.61 v 0 c 0.107,-0.978 0.342,-1.849 0.69,-2.566 v 0 c 0.628,-1.294 1.621,-2.089 2.886,-2.129 v 0 c 0.007,0 0.014,0 0.021,0 v 0 c 0.031,0 0.062,10e-4 0.092,0.002 m 0.901,4.105 c 1.731,0.313 3.502,2.542 4.106,5.295 v 0 c 0.082,0.372 0.137,0.737 0.17,1.089 v 0 c 0.046,-0.674 -0.006,-1.421 -0.179,-2.208 v 0 c -0.627,-2.857 -2.55,-5.128 -4.294,-5.074 v 0 c -0.963,0.03 -1.669,0.766 -2.004,1.897 v 0 c 0.414,-0.635 1.001,-1.02 1.723,-1.042 v 0 c 0.016,-10e-4 0.033,-10e-4 0.049,-10e-4 v 0 c 0.142,0 0.285,0.017 0.429,0.044 m -37.111,-0.649 c -0.27,0.011 -0.537,0.022 -0.802,0.032 v 0 c -0.51,0.021 -1.011,0.041 -1.503,0.059 v 0 c -1.189,0.045 -2.33,0.084 -3.423,0.12 v 0 c -1.286,0.042 -2.504,0.081 -3.66,0.118 v 0 c -0.101,0.004 -0.205,0.008 -0.305,0.011 v 0 c -0.613,0.02 -1.207,0.041 -1.785,0.062 v 0 c -2.798,0.104 -5.17,0.226 -7.148,0.438 v 0 c -0.481,0.051 -0.941,0.108 -1.375,0.171 v 0 c -0.805,0.117 -1.527,0.307 -2.176,0.559 v 0 c 0.8,1.13 2.087,2.149 3.499,2.547 v 0 c 0.3,0.084 0.606,0.143 0.915,0.166 v 0 c 0.768,0.059 3.197,0.065 6.244,-10e-4 v 0 c 0.545,-0.012 1.11,-0.026 1.689,-0.042 v 0 c 0.583,-0.017 1.18,-0.036 1.786,-0.058 v 0 c 0.1,-0.003 0.201,-0.007 0.302,-0.011 v 0 c 0.943,-0.035 1.902,-0.076 2.855,-0.125 v 0 c 0.735,-0.036 1.465,-0.077 2.181,-0.122 v 0 c 0.212,-0.013 0.424,-0.028 0.635,-0.041 v 0 c 0.684,-0.047 1.352,-0.097 1.996,-0.152 v 0 c 0.355,-0.029 0.704,-0.061 1.042,-0.093 v 0 c 0.236,-0.024 0.466,-0.047 0.692,-0.07 v 0 c 0.447,-0.048 0.876,-0.099 1.279,-0.151 v 0 l -1.337,-0.025 -0.724,-0.012 -1.116,-0.021 -2.155,-0.04 -0.817,-0.014 -1.846,-0.034 -2.549,-0.047 -0.082,-0.001 -2.23,-0.041 -1.696,-0.031 -4.787,-0.087 4.772,-0.291 1.699,-0.104 2.558,-0.156 0.229,-0.014 1.892,-0.115 0.862,-0.053 1.176,-0.071 2.339,-0.143 1.205,-0.073 0.716,-0.044 7.392,-0.45 v -0.001 l -7.587,0.026 -0.747,0.002 -1.301,0.004 -2.801,0.01 -1.427,0.005 -1.33,0.004 -3.025,0.01 h -0.107 l -1.722,0.006 -2.171,0.008 2.186,-0.234 1.751,-0.189 0.166,-0.018 4.066,-0.435 3.54,-0.379 1.392,-0.149 0.761,-0.081 2.282,-0.245 c -0.808,0.038 -1.595,0.074 -2.365,0.106"
               style="fill:url(#linearGradient440);stroke:none"
               id="path442" />
          </g>
        </g>
      </g>
    </g>
    <g
       id="g444">
      <g
         id="g446"
         clip-path="url(#clipPath450)">
        <g
           id="g452"
           transform="translate(250.5128,428.4275)">
          <path
             d="M 0,0 -0.975,-5.003 H 12.21 l -1.23,-6.274 H -2.247 l -1.06,-5.427 H 12.252 L 10.896,-23.19 H -12.888 L -6.953,6.486 H 16.28 L 14.966,0 Z"
             style="fill:#ffffff;fill-opacity:1;fill-rule:nonzero;stroke:none"
             id="path454" />
        </g>
        <g
           id="g456"
           transform="translate(284.7686,434.9138)">
          <path
             d="M 0,0 H 8.394 L 3.815,-23.021 h 14.161 l -1.357,-6.656 H -5.936 Z"
             style="fill:#ffffff;fill-opacity:1;fill-rule:nonzero;stroke:none"
             id="path458" />
        </g>
        <g
           id="g460"
           transform="translate(357.8995,411.9353)">
          <path
             d="m 0,0 c 2.035,0 3.794,0.431 5.278,1.293 1.484,0.862 2.607,2.049 3.37,3.561 0.764,1.512 1.145,3.229 1.145,5.152 0,2.006 -0.622,3.554 -1.865,4.641 C 6.684,15.735 4.861,16.28 2.459,16.28 H -2.459 L -5.681,0 Z M -9.497,22.979 H 3.392 c 3.052,0 5.694,-0.502 7.927,-1.505 2.233,-1.004 3.95,-2.446 5.152,-4.325 1.2,-1.879 1.801,-4.091 1.801,-6.634 0,-3.45 -0.784,-6.473 -2.353,-9.074 -1.568,-2.6 -3.752,-4.606 -6.55,-6.019 -2.798,-1.414 -6.006,-2.12 -9.623,-2.12 h -15.178 z"
             style="fill:#ffffff;fill-opacity:1;fill-rule:nonzero;stroke:none"
             id="path462" />
        </g>
        <g
           id="g464"
           transform="translate(403.0923,428.4275)">
          <path
             d="M 0,0 -0.975,-5.003 H 12.21 l -1.23,-6.274 H -2.247 l -1.06,-5.427 H 12.252 L 10.896,-23.19 H -12.888 L -6.953,6.486 H 16.28 L 14.966,0 Z"
             style="fill:#ffffff;fill-opacity:1;fill-rule:nonzero;stroke:none"
             id="path466" />
        </g>
        <g
           id="g468"
           transform="translate(451.5079,417.1921)">
          <path
             d="M 0,0 -1.993,9.624 -7.674,0 Z m 1.271,-6.189 h -12.633 l -3.434,-5.766 h -8.861 l 19.036,29.677 h 8.267 l 7.165,-29.677 H 2.459 Z"
             style="fill:#ffffff;fill-opacity:1;fill-rule:nonzero;stroke:none"
             id="path470" />
        </g>
        <g
           id="g472"
           transform="translate(483.3892,434.9138)">
          <path
             d="M 0,0 H 8.394 L 3.815,-23.021 h 14.161 l -1.357,-6.656 H -5.936 Z"
             style="fill:#ffffff;fill-opacity:1;fill-rule:nonzero;stroke:none"
             id="path474" />
        </g>
        <g
           id="g476"
           transform="translate(528.921,428.4275)">
          <path
             d="M 0,0 -0.975,-5.003 H 12.21 l -1.23,-6.274 H -2.247 l -1.06,-5.427 H 12.252 L 10.896,-23.19 H -12.888 L -6.953,6.486 H 16.28 L 14.966,0 Z"
             style="fill:#ffffff;fill-opacity:1;fill-rule:nonzero;stroke:none"
             id="path478" />
        </g>
        <g
           id="g480"
           transform="translate(578.1002,427.3884)">
          <path
             d="m 0,0 c -0.82,0.607 -1.965,0.912 -3.434,0.912 h -4.409 l -1.781,-8.691 h 5.003 c 1.865,0 3.307,0.437 4.324,1.314 1.018,0.876 1.526,2.119 1.526,3.731 C 1.229,-1.52 0.819,-0.607 0,0 M 7.546,-8.945 C 6.105,-10.91 4.083,-12.344 1.483,-13.248 l 5.046,-8.903 h -8.776 l -4.409,7.885 h -4.24 l -1.568,-7.885 h -8.395 l 5.936,29.676 h 12.676 c 3.787,0 6.726,-0.834 8.818,-2.501 2.092,-1.668 3.137,-3.985 3.137,-6.953 0,-2.713 -0.72,-5.052 -2.162,-7.016"
             style="fill:#ffffff;fill-opacity:1;fill-rule:nonzero;stroke:none"
             id="path482" />
        </g>
        <g
           id="g484"
           transform="translate(666.7481,434.9138)">
          <path
             d="m 0,0 -5.851,-29.677 h -7.758 l 3.052,15.644 -9.878,-12.719 h -3.688 l -5.385,12.719 -3.137,-15.644 H -40.36 L -34.426,0 H -27.6 L -20.646,-17.17 -7.165,0 Z"
             style="fill:#ffffff;fill-opacity:1;fill-rule:nonzero;stroke:none"
             id="path486" />
        </g>
        <g
           id="g488"
           transform="translate(701.2159,412.9958)">
          <path
             d="m 0,0 c 1.413,0.933 2.501,2.183 3.264,3.752 0.763,1.568 1.145,3.299 1.145,5.193 0,2.006 -0.615,3.611 -1.845,4.812 -1.229,1.201 -2.946,1.802 -5.151,1.802 -1.865,0 -3.505,-0.466 -4.917,-1.399 -1.414,-0.933 -2.502,-2.183 -3.265,-3.753 -0.763,-1.568 -1.144,-3.3 -1.144,-5.193 0,-2.007 0.614,-3.61 1.844,-4.812 1.229,-1.201 2.946,-1.801 5.151,-1.801 1.865,0 3.504,0.465 4.918,1.399 m -13.461,-6.699 c -2.219,1.102 -3.929,2.642 -5.13,4.621 -1.201,1.978 -1.802,4.24 -1.802,6.783 0,3.392 0.785,6.444 2.353,9.158 1.569,2.713 3.759,4.833 6.571,6.36 2.813,1.525 6.014,2.289 9.603,2.289 2.996,0 5.603,-0.552 7.822,-1.654 2.219,-1.102 3.929,-2.643 5.13,-4.621 1.201,-1.978 1.802,-4.24 1.802,-6.783 0,-3.392 -0.784,-6.444 -2.353,-9.158 -1.569,-2.713 -3.76,-4.833 -6.571,-6.358 -2.813,-1.527 -6.014,-2.291 -9.603,-2.291 -2.996,0 -5.603,0.552 -7.822,1.654"
             style="fill:#ffffff;fill-opacity:1;fill-rule:nonzero;stroke:none"
             id="path490" />
        </g>
        <g
           id="g492"
           transform="translate(738.6085,428.2576)">
          <path
             d="m 0,0 h -9.115 l 1.356,6.656 H 18.823 L 17.467,0 H 8.395 L 3.772,-23.021 h -8.393 z"
             style="fill:#ffffff;fill-opacity:1;fill-rule:nonzero;stroke:none"
             id="path494" />
        </g>
        <g
           id="g496"
           transform="translate(788.5928,412.9958)">
          <path
             d="m 0,0 c 1.413,0.933 2.501,2.183 3.264,3.752 0.763,1.568 1.145,3.299 1.145,5.193 0,2.006 -0.615,3.611 -1.845,4.812 -1.229,1.201 -2.946,1.802 -5.151,1.802 -1.865,0 -3.505,-0.466 -4.917,-1.399 -1.414,-0.933 -2.502,-2.183 -3.265,-3.753 -0.763,-1.568 -1.144,-3.3 -1.144,-5.193 0,-2.007 0.614,-3.61 1.844,-4.812 1.229,-1.201 2.946,-1.801 5.151,-1.801 1.865,0 3.504,0.465 4.918,1.399 m -13.461,-6.699 c -2.219,1.102 -3.929,2.642 -5.13,4.621 -1.201,1.978 -1.802,4.24 -1.802,6.783 0,3.392 0.785,6.444 2.353,9.158 1.569,2.713 3.759,4.833 6.571,6.36 2.813,1.525 6.014,2.289 9.603,2.289 2.996,0 5.603,-0.552 7.822,-1.654 2.219,-1.102 3.929,-2.643 5.13,-4.621 1.201,-1.978 1.802,-4.24 1.802,-6.783 0,-3.392 -0.784,-6.444 -2.353,-9.158 -1.569,-2.713 -3.76,-4.833 -6.571,-6.358 -2.813,-1.527 -6.014,-2.291 -9.603,-2.291 -2.996,0 -5.603,0.552 -7.822,1.654"
             style="fill:#ffffff;fill-opacity:1;fill-rule:nonzero;stroke:none"
             id="path498" />
        </g>
        <g
           id="g500"
           transform="translate(836.3721,427.3884)">
          <path
             d="m 0,0 c -0.82,0.607 -1.965,0.912 -3.435,0.912 h -4.409 l -1.78,-8.691 h 5.003 c 1.865,0 3.307,0.437 4.324,1.314 1.018,0.876 1.526,2.119 1.526,3.731 C 1.229,-1.52 0.819,-0.607 0,0 M 7.546,-8.945 C 6.104,-10.91 4.084,-12.344 1.483,-13.248 l 5.045,-8.903 h -8.775 l -4.409,7.885 h -4.24 l -1.569,-7.885 h -8.393 l 5.934,29.676 h 12.677 c 3.787,0 6.726,-0.834 8.818,-2.501 2.091,-1.668 3.137,-3.985 3.137,-6.953 0,-2.713 -0.721,-5.052 -2.162,-7.016"
             style="fill:#ffffff;fill-opacity:1;fill-rule:nonzero;stroke:none"
             id="path502" />
        </g>
        <g
           id="g504"
           transform="translate(863.6739,405.5339)">
          <path
             d="m 0,0 c -2.204,0.594 -3.999,1.356 -5.384,2.289 l 3.307,6.274 C -0.579,7.603 1.018,6.875 2.714,6.381 4.409,5.886 6.105,5.639 7.801,5.639 c 1.611,0 2.862,0.233 3.752,0.699 0.89,0.467 1.336,1.109 1.336,1.929 0,0.707 -0.404,1.257 -1.208,1.654 -0.806,0.394 -2.057,0.819 -3.753,1.271 -1.922,0.509 -3.519,1.025 -4.79,1.547 -1.273,0.524 -2.368,1.322 -3.286,2.396 -0.919,1.074 -1.378,2.487 -1.378,4.24 0,2.119 0.579,3.978 1.738,5.574 1.159,1.597 2.812,2.834 4.961,3.71 2.147,0.876 4.663,1.315 7.546,1.315 2.12,0 4.097,-0.22 5.935,-0.658 1.837,-0.438 3.419,-1.067 4.748,-1.886 L 20.35,21.197 c -1.16,0.736 -2.438,1.293 -3.836,1.675 -1.4,0.382 -2.834,0.572 -4.304,0.572 -1.668,0 -2.975,-0.268 -3.922,-0.805 -0.947,-0.537 -1.42,-1.23 -1.42,-2.077 0,-0.736 0.409,-1.3 1.23,-1.696 0.819,-0.396 2.091,-0.82 3.815,-1.272 1.922,-0.481 3.512,-0.975 4.77,-1.484 1.257,-0.508 2.338,-1.286 3.243,-2.332 0.904,-1.046 1.357,-2.416 1.357,-4.112 0,-2.092 -0.587,-3.937 -1.76,-5.532 C 18.351,2.536 16.683,1.3 14.521,0.424 12.358,-0.452 9.85,-0.891 6.995,-0.891 4.536,-0.891 2.205,-0.594 0,0"
             style="fill:#ffffff;fill-opacity:1;fill-rule:nonzero;stroke:none"
             id="path506" />
        </g>
      </g>
    </g>
  </g>
</svg>
