<svg width="19" height="19" viewBox="0 0 19 19" fill="none" xmlns="http://www.w3.org/2000/svg">
<path d="M4 14.5376L8.413 14.5226L18.045 4.98259C18.423 4.60459 18.631 4.10259 18.631 3.56859C18.631 3.03459 18.423 2.53259 18.045 2.15459L16.459 0.568591C15.703 -0.187409 14.384 -0.183409 13.634 0.565591L4 10.1076V14.5376ZM15.045 1.98259L16.634 3.56559L15.037 5.14759L13.451 3.56259L15.045 1.98259ZM6 10.9416L12.03 4.96859L13.616 6.55459L7.587 12.5256L6 12.5306V10.9416Z" fill="white" fill-opacity="0.6"/>
<path d="M2 18.5246H16C17.103 18.5246 18 17.6276 18 16.5246V7.85659L16 9.85659V16.5246H5.158C5.132 16.5246 5.105 16.5346 5.079 16.5346C5.046 16.5346 5.013 16.5256 4.979 16.5246H2V2.52459H8.847L10.847 0.524591H2C0.897 0.524591 0 1.42159 0 2.52459V16.5246C0 17.6276 0.897 18.5246 2 18.5246Z" fill="white" fill-opacity="0.6"/>
</svg>
