<svg width="26" height="26" viewBox="0 0 26 26" fill="none" xmlns="http://www.w3.org/2000/svg">
<path d="M9.59603 17.8C10.618 18.5564 11.861 19 13.2015 19C14.5421 19 15.785 18.5564 16.807 17.8M24.7823 14.1495L24.4473 16.4742C23.8614 20.5392 23.5686 22.5717 22.1564 23.7858C20.7441 25 18.673 25 14.5309 25H11.8722C7.73003 25 5.65893 25 4.2467 23.7858C2.83447 22.5717 2.54157 20.5392 1.95578 16.4742L1.62075 14.1495C1.16472 10.985 0.936709 9.40275 1.58625 8.04994C2.2358 6.69712 3.61834 5.87481 6.38342 4.23017L8.04777 3.24024C10.5588 1.74675 11.8143 1 13.2015 1C14.5888 1 15.8444 1.74675 18.3552 3.24024L20.0197 4.23017C22.7847 5.87481 24.1673 6.69712 24.8168 8.04994" stroke="#EB5E28" stroke-width="2" stroke-linecap="round"/>
</svg>
