<svg width="64" height="64" viewBox="0 0 64 64" fill="none" xmlns="http://www.w3.org/2000/svg">
<path d="M28.5289 20.809C29.581 20.2902 30.7579 20 32 20C36.4729 20 40.0989 23.7635 40.0989 28.406V29.2515C40.0989 30.2662 40.3884 31.2582 40.9306 32.1025L42.2595 34.1714C43.4734 36.0612 42.5468 38.6299 40.4355 39.2275C34.9128 40.7908 29.0873 40.7908 23.5644 39.2275C21.4533 38.6299 20.5266 36.0612 21.7404 34.1714L23.0694 32.1025C23.6117 31.2582 23.901 30.2662 23.901 29.2515V28.406C23.901 27.1167 24.1807 25.8952 24.6805 24.8033M26.6 40.4C27.386 42.4974 29.5069 44 32 44C32.2934 44 32.5816 43.9792 32.863 43.939M37.4 40.4C37.0795 41.2551 36.5372 42.0114 35.8382 42.6072" stroke="white" stroke-width="2" stroke-linecap="round"/>
</svg>
