<svg width="28" height="26" viewBox="0 0 28 26" fill="none" xmlns="http://www.w3.org/2000/svg">
<path d="M15.3427 1C15.3427 1 18.2965 1.26667 22.0559 5.00001C25.8154 8.73335 26.0839 11.6667 26.0839 11.6667M15.6206 5.7142C15.6206 5.7142 16.9498 6.09133 18.9435 8.07123C20.9372 10.0511 21.3171 11.3711 21.3171 11.3711M1.92487 8.9108C1.82775 11.455 2.47614 15.7756 6.84054 20.1098C7.89347 21.1554 8.9456 21.9862 9.97202 22.6436M3.98083 4.91631C5.85109 3.05904 8.83502 3.30859 10.0225 5.42157L10.8939 6.97214C11.6803 8.37145 11.3646 10.2071 10.126 11.4371C10.126 11.4371 8.62383 12.9291 11.3476 15.634C14.0705 18.338 15.5739 16.8471 15.5739 16.8471C16.8125 15.6171 18.6609 15.3036 20.07 16.0846L21.6314 16.9499C23.7592 18.1291 24.0104 21.0923 22.1403 22.9496C21.0165 24.0656 19.6397 24.934 18.1178 24.9912C17.0249 25.0324 15.6062 24.9388 14 24.4815" stroke="#339989" stroke-width="2" stroke-linecap="round"/>
</svg>
