<svg width="29" height="40" viewBox="0 0 29 40" fill="none" xmlns="http://www.w3.org/2000/svg">
<path d="M28.3499 3.72133L28.2898 3.33034L27.9292 3.16492C26.0965 2.29271 21.1389 0.307693 14.619 0.307693C8.45962 0.307693 3.74244 2.08218 1.45897 3.14988L1.09842 3.3153L1.03833 3.70629C0.632713 6.30787 -0.0883842 13.2254 1.92468 21.0301C3.96779 28.9401 8.12912 35.1057 14.2584 39.3916L14.6791 39.6923L15.0997 39.3916C21.229 35.1208 25.3904 28.9401 27.4335 21.0301C29.4766 13.2404 28.7555 6.32291 28.3499 3.72133ZM26.0063 20.6692C24.0984 28.0378 20.2976 33.8124 14.6941 37.8727C9.09058 33.8124 5.2898 28.0228 3.3819 20.6692C1.51906 13.4961 2.05988 7.11993 2.4655 4.35293C4.73395 3.33034 9.06054 1.82654 14.619 1.82654C20.4479 1.82654 24.9547 3.48072 26.9377 4.35293C27.3283 7.11993 27.8692 13.4961 26.0063 20.6692Z" fill="white"/>
<path d="M4.20815 7.51091L5.0945 7.18008L5.21468 7.49588L3.95276 7.97709L3.30678 6.18757L3.66733 6.05222L4.20815 7.51091Z" fill="white"/>
<path d="M9.70652 6.3981L9.34597 6.47329L9.04551 4.90933H9.03049L8.98542 6.53344L8.60985 6.60863L7.96387 5.11987L8.26432 6.68382L7.90378 6.74397L7.54323 4.87926L8.1141 4.77399L8.73003 6.17253L8.7751 4.63865L9.34597 4.53338L9.70652 6.3981Z" fill="white"/>
<path d="M18.1944 5.16498L18.9906 5.24017L18.8855 6.26276L18.6151 6.23268L18.6 5.99207C18.4949 6.09734 18.3296 6.24772 17.9841 6.21764C17.5334 6.17253 17.1428 5.79658 17.2179 5.1349C17.278 4.62361 17.6085 4.15743 18.2395 4.23262C18.8254 4.29277 19.0057 4.6988 19.0057 4.95445L18.6151 4.90933C18.6151 4.83414 18.5099 4.5785 18.2395 4.54842C17.9541 4.51834 17.6837 4.68376 17.6236 5.18002C17.5635 5.69131 17.8339 5.85673 18.1043 5.88681C18.1944 5.90184 18.4799 5.88681 18.6 5.51086L18.1644 5.46574L18.1944 5.16498Z" fill="white"/>
<path d="M20.0723 5.60108L19.9221 6.44321L19.5315 6.36802L19.877 4.48827L20.2676 4.56346L20.1324 5.27025L20.8685 5.40559L20.9887 4.6988L21.3793 4.75895L21.0488 6.63871L20.6582 6.57856L20.8084 5.73643L20.0723 5.60108Z" fill="white"/>
<path d="M22.1004 6.89435L21.7098 6.80413L22.1605 4.93941L22.536 5.02964L22.1004 6.89435Z" fill="white"/>
<path d="M24.4289 5.57101L24.7895 5.67627L24.2336 7.49588L23.858 7.39061L23.5125 5.85673L23.1069 7.16504L22.7614 7.04473L23.3172 5.22513L23.7078 5.34544L24.0533 6.8342L24.4289 5.57101Z" fill="white"/>
<path d="M25.2402 7.87183L24.8646 7.73648L25.5406 5.94696L25.9162 6.09734L25.2402 7.87183Z" fill="white"/>
<path d="M22.5661 19.7368C22.2206 19.6316 21.83 19.421 21.3492 18.9097C21.3793 18.6842 21.3943 18.5338 21.3793 18.3985C21.3643 18.2631 21.3192 18.1729 21.2591 18.0375C21.199 17.9022 21.1239 17.7819 21.0788 17.5864C21.0338 17.3909 21.0037 17.1202 21.0488 16.6841C21.0938 16.248 21.0788 15.5412 20.8985 14.7743C20.7183 14.0073 20.3577 13.1803 19.7418 12.4885C19.907 11.9772 19.9972 11.6163 20.0122 11.3306C20.0272 11.0449 19.9822 10.8343 19.862 10.5787C19.7418 10.3381 19.4413 10.1275 18.9906 9.99219C18.54 9.85685 17.9541 9.78166 17.278 9.78166C16.602 9.78166 15.6255 9.84181 14.8293 9.82677C14.0331 9.81173 13.3871 9.75158 13.3871 9.54105C13.3871 9.33052 13.4923 9.24029 13.6425 9.18014C13.7927 9.11998 13.988 9.11998 14.1383 9.10495C14.3636 9.19517 14.6941 9.25533 15.0246 9.27036C15.3551 9.30044 15.7157 9.30044 15.9861 9.30044C16.2715 9.30044 16.5269 9.21021 16.8123 9.13502C17.0827 9.05983 17.3832 8.9696 17.7137 8.9696C17.4283 8.87938 17.0677 8.74403 16.6921 8.63877C16.3166 8.5335 15.941 8.47335 15.6255 8.54854C15.5053 8.44327 15.4302 8.35304 15.295 8.32297C15.1598 8.29289 14.9795 8.29289 14.6791 8.38312C14.3786 8.45831 14.1833 8.48839 14.0331 8.51846C13.8678 8.5335 13.7477 8.54854 13.5524 8.59365C13.3571 8.63877 13.1017 8.66884 12.8914 8.77411C12.681 8.87937 12.5158 9.04479 12.5158 9.37563C12.5158 9.69143 12.636 9.97715 12.9515 10.1726C13.282 10.3681 13.8228 10.4884 14.6791 10.4734C15.5504 10.4584 16.4968 10.4433 17.278 10.4734C18.0592 10.5185 18.6752 10.6238 18.8855 10.8644C19.0958 11.105 19.1559 11.2704 19.1258 11.4058C19.0958 11.5411 18.9756 11.6464 18.8254 11.7817C18.6902 11.7817 18.4648 11.7968 18.1794 11.7817C17.909 11.7667 17.5935 11.7065 17.3081 11.5862C17.0226 11.4509 16.6921 11.3757 16.3466 11.3757C16.0161 11.3757 15.6706 11.4358 15.4002 11.6013C15.1147 11.7516 14.4237 12.0975 13.7176 12.6088C13.0115 13.1351 12.2754 13.8419 11.9449 14.7592C11.5994 15.6766 11.4341 16.248 11.329 16.654C11.2238 17.0601 11.1938 17.2706 11.1187 17.4811C11.0436 17.6917 10.9234 17.9022 10.8182 18.1428C10.713 18.3834 10.6229 18.6391 10.6379 18.9398C10.6379 19.2406 10.6229 19.6015 10.5778 19.9474C10.5328 20.2932 10.4877 20.6241 10.4426 20.8647C10.3976 21.1053 10.3225 21.391 10.2624 21.7219C10.2023 22.0527 10.1572 22.3986 10.1722 22.7745C10.1722 23.1505 10.1572 23.5264 10.0971 23.8873C10.052 24.2483 9.96191 24.5791 9.85675 24.8648C9.75159 25.1505 9.70652 25.3911 9.67647 25.6318C9.6314 25.8573 9.58634 26.0829 9.46615 26.3085C9.33095 26.534 9.1657 26.8198 8.98542 27.0904C8.80515 27.3611 8.63989 27.6168 8.50469 27.7972C8.36948 27.9626 8.30939 28.1732 8.35446 28.3386C8.39953 28.504 8.53473 28.6394 8.82017 28.6694C9.1056 28.6995 9.34597 28.6394 9.52624 28.5191C9.70652 28.3987 9.8267 28.2333 9.85675 28.0378C9.88679 27.8423 9.88679 27.5867 9.90182 27.316C9.91684 27.0453 9.93186 26.7746 10.022 26.5641L10.2023 26.113C10.2924 25.9626 10.3525 25.9024 10.4276 25.8573C10.4877 25.8122 10.5628 25.7671 10.653 25.6618C10.7431 25.5566 10.8933 25.2257 11.0135 24.8798C11.1337 24.534 11.2388 24.143 11.2238 23.8723C11.2238 23.6016 11.2388 23.3911 11.2839 23.2257C11.329 23.0452 11.3891 22.9099 11.4642 22.7745C11.5393 22.6392 11.5844 22.4888 11.6445 22.3685C11.7196 22.2482 11.8097 22.173 11.975 22.188C12.1402 22.2031 12.2003 22.2933 12.2153 22.3986C12.2304 22.5038 12.2304 22.6392 12.2905 22.7595C12.3505 22.8798 12.4106 23.0001 12.4857 23.1054C12.5609 23.2106 12.666 23.3009 12.8313 23.361C12.9815 23.4212 13.1017 23.5264 13.1768 23.6618C13.2369 23.7971 13.2369 23.9475 13.1468 24.0828C13.0566 24.2182 12.9214 24.4437 12.8162 24.6844C12.7111 24.925 12.636 25.1505 12.636 25.3009C12.636 25.4513 12.666 25.6769 12.636 25.9175C12.6059 26.1581 12.5458 26.3987 12.3505 26.5942C12.1703 26.7897 12.02 26.9852 11.9149 27.1506C11.8097 27.316 11.7647 27.4664 11.7647 27.5566C11.7647 27.6468 11.8097 27.7672 11.8999 27.8724C12.005 27.9777 12.1552 28.0378 12.4106 28.0378C12.651 28.0378 12.8463 27.9777 12.9815 27.8875C13.1167 27.7972 13.2068 27.6619 13.2669 27.4965C13.327 27.3311 13.312 27.1957 13.282 27.0904C13.2519 26.9852 13.2219 26.8949 13.2219 26.7746C13.2219 26.6543 13.2519 26.534 13.297 26.3836C13.342 26.2483 13.3871 26.0979 13.4021 25.9626C13.4172 25.8272 13.4472 25.6618 13.5073 25.4814C13.5674 25.3009 13.6575 25.1054 13.8078 24.8949C13.958 24.6844 14.0331 24.5039 14.1082 24.3385C14.1833 24.1731 14.2284 24.0377 14.3185 23.9024C14.4087 23.767 14.4537 23.7069 14.4838 23.6768C14.5138 23.6618 14.5589 23.6918 14.649 23.737C14.7392 23.7971 14.7692 23.8422 14.7392 23.9174C14.7242 23.9776 14.6641 24.0678 14.604 24.158C14.5439 24.2482 14.4387 24.4137 14.3185 24.5941C14.1984 24.7595 14.0782 24.955 14.0031 25.0753C13.9279 25.2107 13.8829 25.3761 13.9129 25.5265C13.943 25.6769 14.0331 25.7821 14.2434 25.7972C14.4537 25.8122 14.619 25.8122 14.7242 25.7821C14.8443 25.7521 14.9044 25.6769 14.9194 25.5716C14.9345 25.4513 14.9645 25.2708 15.0246 25.0904C15.0697 24.9099 15.1298 24.7295 15.2049 24.6092C15.28 24.4889 15.3251 24.3836 15.3551 24.2934C15.3852 24.2031 15.3852 24.1279 15.3852 24.0678C15.5053 24.1731 15.5955 24.3084 15.6856 24.4437C15.7607 24.5791 15.8358 24.7144 15.8959 24.8498C15.956 24.9851 16.0912 25.1355 16.3316 25.2558C16.572 25.3761 16.9175 25.4513 17.3832 25.4363C17.8489 25.4062 18.0893 25.3911 18.2245 25.346C18.3597 25.3009 18.3897 25.2408 18.4348 25.1205C18.4949 25.0002 18.6151 24.7746 18.6752 24.549C18.7353 24.3234 18.7353 24.0828 18.5249 23.9475C18.555 23.752 18.6151 23.4963 18.6902 23.2557C18.7653 23.0151 18.8855 22.7745 19.0357 22.6091C19.1859 22.4587 19.3963 22.2933 19.5765 22.158C19.7568 22.0226 19.9221 21.8873 19.9671 21.7971C20.2075 21.9324 20.4479 22.0828 20.6131 22.3234C20.7934 22.564 20.8985 22.8648 20.9286 23.2858C20.9286 23.5114 20.9586 23.7219 21.0037 23.9174C21.0338 24.0979 21.0788 24.2633 21.0938 24.3686C21.1089 24.4889 21.1089 24.6092 21.1239 24.7295C21.1239 24.8648 21.1239 24.9851 21.1539 25.1205C21.184 25.2558 21.2591 25.3761 21.3643 25.4513C21.4694 25.5415 21.6046 25.5866 21.7248 25.5566C21.845 25.5415 21.9351 25.4363 22.0102 25.3009C22.0854 25.1656 22.1304 25.0002 22.1304 24.8798C22.1304 24.7445 22.0854 24.6543 22.0403 24.5791C21.9802 24.5039 21.9201 24.4437 21.86 24.3986C21.7999 24.3535 21.7699 24.2934 21.7549 24.2182C21.7398 24.143 21.7549 24.0528 21.8149 23.9024C21.875 23.752 21.86 23.6167 21.8149 23.5114C21.7699 23.4061 21.7098 23.3159 21.6497 23.2557C21.5896 23.1956 21.5295 23.0452 21.4694 22.8347C21.4243 22.6241 21.3943 22.3685 21.3943 22.1279C21.3943 21.8873 21.3793 21.6016 21.3042 21.3459C21.229 21.1053 21.1239 20.8948 20.9737 20.8045C21.4093 20.7745 21.9051 20.7444 22.3407 20.609C22.7764 20.4737 23.167 20.2481 23.3923 19.8571C23.197 19.812 22.9116 19.8421 22.5661 19.7368ZM21.169 20.203C20.7784 20.1128 20.4479 19.9474 20.2826 19.7519C20.1925 19.6466 20.0723 19.5413 19.9521 19.4662C19.8169 19.391 19.6817 19.3308 19.5465 19.2857C19.4113 19.2556 19.201 19.1654 18.9756 19.0752C18.7503 18.9849 18.54 18.8797 18.4048 18.8195C18.3747 18.8797 18.3146 18.9549 18.2245 19.0451C18.1343 19.1353 18.0142 19.2556 17.8639 19.3759C17.7287 19.4962 17.6987 19.6015 17.6987 19.6767C17.7137 19.7519 17.7738 19.8271 17.8038 19.8872C17.8489 19.9474 18.0142 20.0827 18.1944 20.2481C18.3747 20.3985 18.57 20.5489 18.6301 20.6241C18.4198 20.6241 18.2695 20.609 18.0893 20.5489C17.909 20.4887 17.7137 20.3835 17.3832 20.1729C17.0527 19.9624 16.9475 19.7519 16.9475 19.5564C16.9475 19.3759 17.0377 19.2105 17.0827 19.1504C17.1278 19.0902 17.248 18.9849 17.3682 18.8947C17.4884 18.8045 17.6085 18.7143 17.6536 18.6691C17.6987 18.624 17.7437 18.5789 17.7287 18.5338C17.7287 18.4887 17.6837 18.4586 17.6085 18.4736C17.0527 18.5639 16.6621 18.7143 16.4067 18.8797C16.1513 19.0451 16.0462 19.2105 16.0311 19.3308C16.0161 19.4511 16.0462 19.5564 16.0912 19.6616C16.1363 19.7669 16.2264 19.8722 16.3466 19.9774C16.4668 20.0827 16.5119 20.2331 16.4968 20.3684C16.4968 20.5038 16.4368 20.6241 16.3767 20.6993C16.3016 20.7745 16.2715 20.8196 16.2415 20.8647C16.2114 20.9098 16.1964 21 16.1513 21.1504C16.1063 21.3008 16.0762 21.5865 16.0612 21.9023C16.0462 22.2181 16.0462 22.5339 16.0612 22.7595C16.1363 22.6392 16.2415 22.5339 16.3466 22.4587C16.4518 22.3835 16.572 22.3384 16.6471 22.3083C16.7072 22.8948 16.6771 23.3009 16.617 23.6016C16.572 23.9024 16.4818 24.0979 16.4368 24.2633C16.4217 24.3084 16.4067 24.3385 16.3767 24.3234C16.3466 24.3234 16.3166 24.2934 16.3016 24.2332C16.2565 24.0979 16.1814 23.8873 16.0912 23.6918C16.0011 23.4963 15.8959 23.3159 15.7908 23.2257C15.5053 22.9399 15.3701 22.7896 15.31 22.6693C15.25 22.549 15.265 22.4587 15.265 22.2783C14.8143 22.0527 14.6641 21.782 14.6641 21.5113C14.6641 21.2557 14.7993 21.0151 14.9194 20.8346C15.0396 20.6692 15.1298 20.4587 15.2049 20.2632C15.28 20.0677 15.31 19.9023 15.3251 19.797C15.3401 19.6917 15.28 19.4962 15.2049 19.3007C15.1147 19.1052 15.0096 18.8947 14.8744 18.7443C14.8443 18.7293 14.7692 18.7143 14.6791 18.7293C14.5889 18.7443 14.4988 18.7894 14.4387 18.9248C14.3786 19.0601 14.2885 19.1353 14.2134 19.1654C14.1232 19.1955 14.0331 19.2105 13.943 19.1955C13.8528 19.1804 13.7326 19.1804 13.6275 19.1955C13.5223 19.2105 13.4172 19.2707 13.342 19.3759C13.2669 19.4812 13.1768 19.4812 13.0716 19.4511C12.9815 19.421 12.8763 19.3609 12.8012 19.3158C12.7261 19.2857 12.681 19.2406 12.621 19.2105C12.5609 19.1804 12.4857 19.1654 12.3205 19.1804C12.1552 19.1955 12.0952 19.3007 12.0501 19.4361C11.99 19.5564 11.9449 19.6917 11.8097 19.7218C11.6745 19.7669 11.5694 19.6917 11.5093 19.5413C11.4492 19.391 11.4341 19.1804 11.4341 18.9549C11.3891 18.6691 11.4942 18.218 11.6294 17.7969C11.7646 17.3759 11.9299 16.9849 12.02 16.7894C12.0952 16.5939 12.2304 16.233 12.3505 15.8119C12.4857 15.4059 12.6059 14.9547 12.6961 14.6089C12.7862 14.263 12.9815 14.0073 13.2369 13.7667C13.4923 13.5261 13.7627 13.3156 14.0181 13.06C14.2735 12.8043 14.5739 12.5787 14.8744 12.4133C15.1748 12.2479 15.4753 12.1426 15.7006 12.1426C15.926 12.1426 16.1663 12.278 16.3616 12.4133C16.5569 12.5637 16.7222 12.7141 16.7973 12.8043C16.8724 12.8945 16.9475 13.09 17.0226 13.3006C17.0978 13.5111 17.1729 13.7367 17.263 13.872C17.3532 14.0073 17.4283 14.2028 17.4884 14.4434C17.5484 14.6841 17.6085 14.9547 17.6536 15.2104C17.6987 15.4811 17.8038 15.6615 17.909 15.8119C18.0142 15.9623 18.1343 16.0826 18.2095 16.2179C18.2846 16.3533 18.3747 16.6691 18.4799 17.015C18.585 17.3608 18.7202 17.7518 18.8855 18.0075C19.0507 18.2631 19.3061 18.4436 19.5615 18.5488C19.8169 18.6691 20.0573 18.7143 20.1775 18.7594C20.2976 18.7894 20.3878 18.8045 20.4779 18.8496C20.568 18.8947 20.6732 18.9849 20.8234 19.1654C21.0338 19.406 21.3492 19.6165 21.6497 19.7669C21.9501 19.9173 22.2206 20.0075 22.3407 20.0526C21.9952 20.2782 21.5596 20.2782 21.169 20.203Z" fill="white"/>
<path d="M6.20619 5.22513L5.77053 5.34544L5.63532 7.36053L6.04094 7.24023L6.05596 6.81916L6.73199 6.62367L6.95734 6.96954L7.37798 6.84924L6.20619 5.22513ZM6.07099 6.48833L6.10103 5.69131L6.5367 6.35298L6.07099 6.48833Z" fill="white"/>
<path d="M11.8848 5.57101C11.8698 5.39055 11.7797 5.21009 11.5393 5.14994C11.6144 5.10483 11.7646 5.0146 11.7196 4.72888C11.7046 4.53338 11.5543 4.2627 11.0886 4.30781L10.1722 4.41308L10.3825 6.30787L11.1788 6.21764C11.5694 6.17253 11.6595 6.09734 11.7496 5.97703C11.8548 5.87177 11.8999 5.72139 11.8848 5.57101ZM10.5929 4.6988L11.0436 4.65369C11.2238 4.63865 11.344 4.66873 11.359 4.81911C11.3741 4.96949 11.2539 5.04468 11.1036 5.05971L10.6379 5.10483L10.5929 4.6988ZM11.2088 5.87177L10.7281 5.93192L10.668 5.42063L11.1637 5.36047C11.2989 5.34544 11.4492 5.39055 11.4792 5.55597C11.5093 5.7665 11.4041 5.85673 11.2088 5.87177Z" fill="white"/>
<path d="M13.3571 4.09728C13.1017 4.11232 12.4557 4.24766 12.4857 5.1349C12.5158 6.02215 13.1918 6.11238 13.4322 6.09734C13.6876 6.0823 14.3336 5.94696 14.3035 5.05971C14.2735 4.15743 13.5974 4.08224 13.3571 4.09728ZM13.4172 5.7665C13.2068 5.78154 12.8914 5.66123 12.8763 5.11987C12.8613 4.59353 13.1468 4.44315 13.3721 4.42812C13.5824 4.41308 13.8979 4.53338 13.9129 5.07475C13.9279 5.60108 13.6275 5.75146 13.4172 5.7665Z" fill="white"/>
<path d="M16.4968 5.63116C16.5119 5.27025 16.4217 5.21009 16.2715 5.1349C16.4668 5.07475 16.572 4.8943 16.572 4.68376C16.572 4.51834 16.4968 4.14239 15.9861 4.12736L15.0246 4.09728L14.9645 6.00711L15.3551 6.02215L15.3852 5.27025L15.7908 5.28528C16.0912 5.30032 16.0912 5.39055 16.0912 5.66124C16.0912 5.85673 16.0912 5.962 16.1213 6.05222L16.5569 6.06726V6.02215C16.4818 5.97703 16.4818 5.90184 16.4968 5.63116ZM15.8659 4.96949L15.4002 4.95445L15.4152 4.44315L15.911 4.45819C16.1363 4.45819 16.1814 4.60857 16.1814 4.71384C16.1663 4.90933 16.0612 4.98452 15.8659 4.96949Z" fill="white"/>
</svg>
