<svg width="29" height="24" viewBox="0 0 29 24" fill="none" xmlns="http://www.w3.org/2000/svg">
<path d="M14.6667 3.8039L13.9725 4.47084C13.9769 4.4753 13.9813 4.47972 13.9856 4.48409L14.6667 3.8039ZM8.24502 17.8074C7.8342 17.4699 7.22709 17.5288 6.88899 17.9389C6.55089 18.349 6.60983 18.9551 7.02065 19.2926L8.24502 17.8074ZM2.26109 13.9483C2.51638 14.4144 3.10176 14.5855 3.56855 14.3306C4.03536 14.0757 4.2068 13.4913 3.9515 13.0253L2.26109 13.9483ZM16.5546 7.04785C16.9308 7.42337 17.5408 7.42326 17.9169 7.0476C18.2932 6.67195 18.293 6.06299 17.9167 5.68747L16.5546 7.04785ZM2.78517 8.4671C2.78517 5.70895 4.3463 3.39597 6.47725 2.42353C8.54746 1.47881 11.3291 1.729 13.9725 4.47084L15.3608 3.13695C12.2242 -0.116371 8.58346 -0.652557 5.67624 0.674117C2.82976 1.97308 0.858444 4.98929 0.858444 8.4671H2.78517ZM10.1677 21.7558C10.8256 22.2736 11.5319 22.8258 12.2477 23.2433C12.9633 23.6607 13.7799 24 14.6667 24V22.0765C14.269 22.0765 13.801 21.9217 13.2198 21.5825C12.6388 21.2436 12.0361 20.777 11.3605 20.2452L10.1677 21.7558ZM19.1657 21.7558C20.9981 20.3135 23.3405 18.6611 25.178 16.5955C27.0485 14.4928 28.4749 11.8852 28.4749 8.4671H26.5482C26.5482 11.2849 25.3931 13.4568 23.7373 15.3183C22.0485 17.2168 19.9197 18.713 17.9729 20.2452L19.1657 21.7558ZM28.4749 8.4671C28.4749 4.98929 26.5036 1.97308 23.657 0.674117C20.7499 -0.652557 17.1091 -0.116371 13.9725 3.13695L15.3608 4.47084C18.0041 1.729 20.7858 1.47881 22.856 2.42353C24.987 3.39597 26.5482 5.70895 26.5482 8.4671H28.4749ZM17.9729 20.2452C17.2972 20.777 16.6945 21.2436 16.1135 21.5825C15.5323 21.9217 15.0643 22.0765 14.6667 22.0765V24C15.5535 24 16.37 23.6607 17.0856 23.2433C17.8014 22.8258 18.5077 22.2736 19.1657 21.7558L17.9729 20.2452ZM11.3605 20.2452C10.3381 19.4406 9.29917 18.6735 8.24502 17.8074L7.02065 19.2926C8.08712 20.1689 9.21366 21.005 10.1677 21.7558L11.3605 20.2452ZM3.9515 13.0253C3.23063 11.7095 2.78517 10.219 2.78517 8.4671H0.858444C0.858444 10.5669 1.39786 12.3726 2.26109 13.9483L3.9515 13.0253ZM13.9856 4.48409L16.5546 7.04785L17.9167 5.68747L15.3477 3.12371L13.9856 4.48409Z" fill="white"/>
</svg>
