<svg width="28" height="26" viewBox="0 0 28 26" fill="none" xmlns="http://www.w3.org/2000/svg">
<path d="M7.95416 2.60538C9.73267 1.58436 11.7976 1 14 1C20.6779 1 26.0916 6.37258 26.0916 13C26.0916 19.6274 20.6779 25 14 25C7.32195 25 1.90836 19.6274 1.90836 13C1.90836 10.8143 2.49718 8.76504 3.52599 7M15.2381 16.0721C12.4452 17.1808 11.0488 17.7352 10.2511 17.1972C10.062 17.0697 9.8989 16.9078 9.77039 16.7201C9.22837 15.9286 9.78694 14.5427 10.9041 11.771C11.1424 11.1797 11.2615 10.8842 11.4665 10.6522C11.5187 10.5931 11.5747 10.5375 11.6342 10.4857C11.868 10.2823 12.1658 10.1641 12.7615 9.92759C15.5545 8.8189 16.9509 8.26456 17.7485 8.80247C17.9376 8.93001 18.1007 9.09189 18.2292 9.27957C18.7713 10.0712 18.2127 11.457 17.0955 14.2288C16.8572 14.8199 16.7381 15.1156 16.5331 15.3474C16.4809 15.4066 16.4249 15.4622 16.3653 15.514C16.1317 15.7174 15.8338 15.8356 15.2381 16.0721Z" stroke="#339989" stroke-width="2" stroke-linecap="round"/>
</svg>
