<svg width="16" height="16" viewBox="0 0 16 16" fill="none" xmlns="http://www.w3.org/2000/svg">
<path d="M6.00004 1.33333C4.25337 1.33333 2.83337 2.75333 2.83337 4.5C2.83337 6.21333 4.17337 7.6 5.92004 7.66C5.97337 7.65333 6.02671 7.65333 6.06671 7.66C6.08004 7.66 6.08671 7.66 6.10004 7.66C6.10671 7.66 6.10671 7.66 6.11337 7.66C7.82004 7.6 9.16004 6.21333 9.16671 4.5C9.16671 2.75333 7.74671 1.33333 6.00004 1.33333Z" fill="#3C83F6"/>
<path d="M9.38664 9.43333C7.52664 8.19333 4.49331 8.19333 2.61997 9.43333C1.77331 10 1.30664 10.7667 1.30664 11.5867C1.30664 12.4067 1.77331 13.1667 2.61331 13.7267C3.54664 14.3533 4.77331 14.6667 5.99997 14.6667C7.22664 14.6667 8.45331 14.3533 9.38664 13.7267C10.2266 13.16 10.6933 12.4 10.6933 11.5733C10.6866 10.7533 10.2266 9.99333 9.38664 9.43333Z" fill="#3C83F6"/>
<path d="M13.3266 4.89333C13.4333 6.18667 12.5133 7.32 11.24 7.47333C11.2333 7.47333 11.2333 7.47333 11.2266 7.47333H11.2066C11.1666 7.47333 11.1266 7.47333 11.0933 7.48667C10.4466 7.52 9.85328 7.31333 9.40662 6.93333C10.0933 6.32 10.4866 5.4 10.4066 4.4C10.3599 3.86 10.1733 3.36667 9.89328 2.94667C10.1466 2.82 10.44 2.74 10.74 2.71333C12.0466 2.6 13.2133 3.57333 13.3266 4.89333Z" fill="#3C83F6"/>
<path d="M14.66 11.06C14.6067 11.7067 14.1933 12.2667 13.5 12.6467C12.8333 13.0133 11.9933 13.1867 11.16 13.1667C11.64 12.7333 11.92 12.1933 11.9733 11.62C12.04 10.7933 11.6467 10 10.86 9.36667C10.4133 9.01333 9.89333 8.73333 9.32666 8.52667C10.8 8.1 12.6533 8.38667 13.7933 9.30667C14.4067 9.8 14.72 10.42 14.66 11.06Z" fill="#3C83F6"/>
</svg>
