<svg width="26" height="26" viewBox="0 0 26 26" fill="none" xmlns="http://www.w3.org/2000/svg">
<path d="M20.1629 22.6C19.972 19.1302 18.9096 16.6 12.9999 16.6C7.09025 16.6 6.02789 19.1302 5.83691 22.6M7 2.60538C8.76504 1.58436 10.8143 1 13 1C19.6274 1 25 6.37258 25 13C25 19.6274 19.6274 25 13 25C6.37258 25 1 19.6274 1 13C1 10.8143 1.58436 8.76504 2.60538 7M16.6 9.4C16.6 11.3882 14.9882 13 13 13C11.0118 13 9.4 11.3882 9.4 9.4C9.4 7.41177 11.0118 5.8 13 5.8C14.9882 5.8 16.6 7.41177 16.6 9.4Z" stroke="white" stroke-width="2" stroke-linecap="round"/>
</svg>
